<svg width="44" height="44" viewBox="0 0 44 44" fill="none" xmlns="http://www.w3.org/2000/svg">
<rect width="44" height="44" rx="4.96774" fill="#F3F4F6"/>
<g clip-path="url(#clip0_575_11078)">
<path d="M13.7163 21.4339L19.305 15.8452C19.4556 15.6998 19.6572 15.6193 19.8666 15.6211C20.0759 15.6229 20.2762 15.7069 20.4242 15.8549C20.5722 16.003 20.6562 16.2032 20.658 16.4125C20.6598 16.6219 20.5793 16.8236 20.4339 16.9741L16.2081 21.2H30.2485C30.4602 21.2 30.6633 21.2841 30.813 21.4338C30.9628 21.5836 31.0469 21.7866 31.0469 21.9984C31.0469 22.2101 30.9628 22.4132 30.813 22.5629C30.6633 22.7127 30.4602 22.7968 30.2485 22.7968H16.2081L20.4339 27.0226C20.5102 27.0963 20.571 27.1844 20.6128 27.2818C20.6547 27.3792 20.6767 27.484 20.6776 27.59C20.6785 27.696 20.6583 27.8011 20.6182 27.8992C20.5781 27.9973 20.5188 28.0865 20.4438 28.1614C20.3688 28.2364 20.2797 28.2957 20.1816 28.3358C20.0835 28.376 19.9783 28.3962 19.8723 28.3953C19.7663 28.3943 19.6616 28.3723 19.5641 28.3305C19.4667 28.2886 19.3786 28.2278 19.305 28.1515L13.7163 22.5628C13.5666 22.4131 13.4825 22.2101 13.4825 21.9984C13.4825 21.7867 13.5666 21.5836 13.7163 21.4339Z" fill="#030712"/>
</g>
<defs>
<clipPath id="clip0_575_11078">
<rect width="19.1613" height="19.1613" fill="white" transform="translate(12.418 12.418)"/>
</clipPath>
</defs>
</svg>
