<svg width="100" height="100" viewBox="0 0 100 100" fill="none" xmlns="http://www.w3.org/2000/svg">
<g id="Frame">
<g id="Group">
<path id="Vector" fill-rule="evenodd" clip-rule="evenodd" d="M0.112305 53.4914L15.4338 43.6172L28.599 64.0449L13.2775 73.9191L0.112305 53.4914Z" fill="#C97628"/>
<path id="Vector_2" d="M25.4418 60.5783C25.1385 60.5785 24.8433 60.4804 24.6004 60.2988C24.3576 60.1171 24.18 59.8617 24.0945 59.5708C24.0089 59.2798 24.0199 58.969 24.1258 58.6848C24.2316 58.4006 24.4267 58.1583 24.6818 57.9943L26.964 56.5277L21.5238 48.0884L19.2416 49.5601C18.9289 49.7558 18.5517 49.8205 18.1917 49.7402C17.8316 49.66 17.5177 49.4412 17.3178 49.1312C17.1178 48.8212 17.048 48.4449 17.1234 48.0838C17.1987 47.7228 17.4132 47.4059 17.7205 47.2017L20.2486 45.5714C21.4199 44.8242 22.9757 45.1617 23.7224 46.3197L29.483 55.256C30.2308 56.417 29.8939 57.9742 28.732 58.7277L26.199 60.3556C25.9732 60.501 25.7103 60.5783 25.4418 60.5783Z" fill="#030712"/>
<path id="Vector_3" fill-rule="evenodd" clip-rule="evenodd" d="M40.2454 34.8479L26.5087 46.3293C24.7193 47.8291 24.4407 50.5049 25.9236 52.3115C27.4064 54.1125 30.156 54.4533 31.9001 52.8967L43.9667 42.1367L48.0968 41.7334C42.1374 54.084 40.5638 56.9076 37.6663 70.1387L22.2536 73.8484C20.5323 74.2631 19.6517 75.0586 19.3052 76.1037C18.9359 77.2172 26.4292 92.6355 27.4575 94.9193C29.1618 94.9762 32.7068 89.0963 29.4857 82.8926L43.6486 78.0354C46.6708 77.0014 48.7614 74.6494 49.4376 71.5248L50.1933 68.0082L59.2318 76.6547L54.0564 91.9254C53.4939 93.6014 53.7382 94.7773 54.4484 95.618C55.2097 96.51 72.2698 98.1461 74.7581 98.4529C75.6954 97.0326 72.5198 90.9369 65.5491 90.4598L68.7759 75.8424C69.4691 72.7234 68.5431 69.7125 66.2308 67.5082L59.3681 60.9863L65.4751 45.2045L68.6111 49.5732C69.7359 51.1412 71.588 51.84 73.4741 51.4082L86.7052 48.3574C88.9833 47.8348 90.5513 45.7215 90.1366 43.4264C89.722 41.1256 87.4722 39.4609 85.1997 39.9951L72.7241 42.9209C70.5767 40.5689 68.9179 38.5521 67.5827 36.8479L52.4427 30.8828C49.5054 31.8367 45.6083 33.1832 40.2454 34.8479Z" fill="#6BB56B"/>
<path id="Vector_4" fill-rule="evenodd" clip-rule="evenodd" d="M58.7312 26.8086L67.0198 29.9844L64.8667 35.6029C63.9976 37.8811 61.4126 39.0344 59.1345 38.1594C56.8564 37.2902 55.703 34.7109 56.578 32.4271L58.7312 26.8086Z" fill="#FFCEBF"/>
<path id="Vector_5" fill-rule="evenodd" clip-rule="evenodd" d="M60.4467 32.451C66.4061 34.7348 73.4676 30.7637 76.2172 23.5885C77.1773 21.0832 77.484 18.5211 77.2283 16.152L61.0658 8.73828C59.975 16.5725 57.4811 21.691 54.0498 24.9975C54.9986 28.4344 57.2369 31.2238 60.4467 32.451Z" fill="#FFCEBF"/>
<path id="Vector_6" fill-rule="evenodd" clip-rule="evenodd" d="M54.0504 24.9974C57.4816 21.6968 59.9758 16.5724 61.0664 8.73825L77.2289 16.1519C81.9783 17.4927 83.8359 15.8394 87.2389 11.2207C75.0246 11.323 67.8098 -4.54984 59.7596 4.15348C55.2832 -1.83988 47.1195 15.459 54.0504 24.9974Z" fill="#030712"/>
<path id="Vector_7" fill-rule="evenodd" clip-rule="evenodd" d="M95.902 65.2863C98.2596 64.1898 99.9014 61.8039 99.9014 59.0314C99.9014 56.225 98.2254 53.8162 95.8281 52.7426V35.2449C98.2256 34.1713 99.9014 31.7625 99.9014 28.9561C99.9014 26.1836 98.2596 23.7977 95.902 22.7012V29.9219H90.1244V22.7012C87.7611 23.7977 86.125 26.1836 86.125 28.9561C86.125 31.7625 87.7951 34.1713 90.1982 35.2449V52.7426C87.7951 53.8162 86.125 56.225 86.125 59.0314C86.125 61.8037 87.7611 64.1898 90.1244 65.2863V58.0656H95.902V65.2863Z" fill="#7386A2"/>
<path id="Vector_8" d="M45.7666 20.9756C45.7666 21.3477 45.6188 21.7046 45.3556 21.9678C45.0925 22.231 44.7356 22.3789 44.3635 22.3789H16.708C16.3358 22.3789 15.9789 22.2311 15.7157 21.9679C15.4525 21.7047 15.3047 21.3478 15.3047 20.9756C15.3047 20.6034 15.4525 20.2465 15.7157 19.9833C15.9789 19.7201 16.3358 19.5723 16.708 19.5723H44.3633C44.7355 19.5723 45.0924 19.7201 45.3556 19.9833C45.6188 20.2465 45.7666 20.6034 45.7666 20.9756ZM41.6592 26.3328H21.8211C21.4489 26.3328 21.092 26.4807 20.8288 26.7438C20.5656 27.007 20.4178 27.3639 20.4178 27.7361C20.4178 28.1083 20.5656 28.4653 20.8288 28.7284C21.092 28.9916 21.4489 29.1395 21.8211 29.1395H41.6592C42.4342 29.1395 43.0623 28.5111 43.0623 27.7361C43.0623 26.9611 42.4342 26.3328 41.6592 26.3328ZM33.4672 32.1217H16.708C16.3358 32.1217 15.9789 32.2695 15.7157 32.5327C15.4525 32.7959 15.3047 33.1528 15.3047 33.525C15.3047 33.8972 15.4525 34.2541 15.7157 34.5173C15.9789 34.7805 16.3358 34.9283 16.708 34.9283H33.4672C34.2422 34.9283 34.8703 34.3 34.8703 33.525C34.8703 32.75 34.2422 32.1217 33.4672 32.1217Z" fill="#008000"/>
<path id="Vector_9" fill-rule="evenodd" clip-rule="evenodd" d="M26.5083 46.329C24.9573 47.63 24.5427 49.8115 25.4231 51.5443C25.5508 51.7985 25.705 52.0384 25.8833 52.2601C25.8946 52.2771 25.9116 52.2943 25.9231 52.3113C27.406 54.1122 30.1556 54.4531 31.8997 52.8964L34.7118 50.3911L29.4397 43.8806L26.5083 46.329ZM82.2735 40.6822L84.171 48.9423L86.7048 48.3572C88.6761 47.9027 90.1134 46.2609 90.1987 44.3351V43.9943C90.1874 43.8068 90.1704 43.6136 90.1362 43.4261C89.7216 41.1253 87.4718 39.4607 85.1993 39.9949L82.2735 40.6822Z" fill="#FFCEBF"/>
<path id="Vector_10" fill-rule="evenodd" clip-rule="evenodd" d="M59.3669 60.9859L40.8921 57.9238C39.7843 61.1791 38.8298 64.815 37.6654 70.1381L22.2527 73.8478C20.5314 74.2625 19.6507 75.058 19.3042 76.1031C18.9349 77.2166 26.4282 92.635 27.4566 94.9188C29.1609 94.9756 32.7058 89.0957 29.4847 82.892L43.6476 78.0348C46.6698 77.0008 48.7605 74.6488 49.4366 71.5242L50.1923 68.0076L59.2308 76.6541L54.0554 91.9248C53.4929 93.6008 53.7372 94.7768 54.4474 95.6174C55.2087 96.5094 72.2689 98.1455 74.7571 98.4523C75.6945 97.032 72.5189 90.9363 65.5482 90.4592L68.7749 75.8418C69.4681 72.7228 68.5421 69.7119 66.2298 67.5076L59.3669 60.9859Z" fill="#030712"/>
<path id="Vector_11" fill-rule="evenodd" clip-rule="evenodd" d="M22.2934 68.0662C20.9355 67.7992 19.6801 67.0039 18.8734 65.7539L9.82929 51.716C9.02265 50.4719 8.81816 49.0004 9.13613 47.6484L15.408 43.6035L28.5652 64.0213L22.2934 68.0662Z" fill="#BD6B1E"/>
<path id="Vector_12" fill-rule="evenodd" clip-rule="evenodd" d="M15.408 43.6035L28.5653 64.0213L25.3782 66.0777C23.6227 67.2082 21.2594 66.7027 20.1289 64.9473L11.0848 50.9094C9.95433 49.1539 10.4657 46.7906 12.2153 45.6602L15.408 43.6035Z" fill="#D49051"/>
<path id="Vector_13" fill-rule="evenodd" clip-rule="evenodd" d="M12.1279 57.2197L16.3967 54.4688L19.1186 58.6924L14.85 61.4434L12.1279 57.2197Z" fill="#FFC328"/>
<path id="Vector_14" fill-rule="evenodd" clip-rule="evenodd" d="M60.4465 32.451C66.4059 34.7348 73.4674 30.7637 76.217 23.5885C77.1771 21.0832 77.4838 18.5211 77.2281 16.152L61.0656 8.73828V8.74395L75.0127 15.1352C75.2684 17.5098 74.9615 20.0721 74.0014 22.5717C71.3369 29.5252 64.6334 33.4623 58.7988 31.6387C59.3211 31.961 59.8728 32.233 60.4465 32.451Z" fill="#FFAF8A"/>
</g>
</g>
</svg>
