<svg width="101" height="100" viewBox="0 0 101 100" fill="none" xmlns="http://www.w3.org/2000/svg">
<g id="Frame">
<g id="Group">
<g id="Rental car service">
<path id="Vector" d="M14.8246 78.63H63.0806C66.0111 78.63 68.1656 75.8835 67.4681 73.0375L63.4341 56.577C62.9662 54.6678 62.0026 52.916 60.6408 51.4986C59.2789 50.0811 57.567 49.0483 55.6781 48.5045L35.6586 42.7385L16.5506 19.349C15.68 18.2833 14.5834 17.4246 13.3402 16.835C12.0969 16.2453 10.7381 15.9394 9.36212 15.9395H3.05762V78.63H14.8246Z" fill="#98B4E7"/>
<path id="Vector_2" d="M20.4642 88.5984C29.2751 88.5984 36.4177 81.4558 36.4177 72.6449C36.4177 63.834 29.2751 56.6914 20.4642 56.6914C11.6534 56.6914 4.51074 63.834 4.51074 72.6449C4.51074 81.4558 11.6534 88.5984 20.4642 88.5984Z" fill="#030712"/>
<g id="Group_2">
<path id="Vector_3" d="M8.24967 72.5168C8.32017 65.7833 13.8557 60.3618 20.5892 60.4323C27.3227 60.5028 32.7442 66.0383 32.6737 72.7718C32.6032 79.5053 27.0677 84.9268 20.3342 84.8563C13.6007 84.7858 8.18117 79.2498 8.24967 72.5168ZM9.98567 72.5348C9.92567 78.3113 14.5757 83.0598 20.3522 83.1203C26.1287 83.1808 30.8772 78.5303 30.9377 72.7538C30.9982 66.9773 26.3477 62.2288 20.5712 62.1683C14.7947 62.1078 10.0497 66.7583 9.98767 72.5348H9.98567Z" fill="white"/>
<path id="Vector_4" d="M19.6562 83.771L19.8831 61.082L21.6191 61.0994L21.3922 83.7884L19.6562 83.771Z" fill="white"/>
<path id="Vector_5" d="M9.28516 73.1891L9.30251 71.4531L31.9915 71.68L31.9742 73.416L9.28516 73.1891Z" fill="white"/>
<path id="Vector_6" d="M12.0957 64.9379L13.3352 63.7227L29.2179 79.923L27.9784 81.1382L12.0957 64.9379Z" fill="white"/>
<path id="Vector_7" d="M11.9492 79.7498L28.1495 63.8672L29.3647 65.1067L13.1644 80.9893L11.9492 79.7498Z" fill="white"/>
<path id="Vector_8" d="M20.4639 76.1896C22.4218 76.1896 24.0089 74.6025 24.0089 72.6446C24.0089 70.6868 22.4218 69.0996 20.4639 69.0996C18.5061 69.0996 16.9189 70.6868 16.9189 72.6446C16.9189 74.6025 18.5061 76.1896 20.4639 76.1896Z" fill="white"/>
</g>
<path id="Vector_9" d="M3.05762 18.1777V45.9777H32.6776L12.6816 19.8352C12.2875 19.3198 11.7799 18.9021 11.1983 18.6147C10.6166 18.3272 9.97645 18.1777 9.32762 18.1777H3.05762Z" fill="#030712"/>
<path id="Vector_10" d="M61.6218 52.6719H52.2578C52.2578 52.6719 53.8138 58.0414 56.0943 59.1299C58.3748 60.2184 64.1858 59.6434 64.1858 59.6434C64.1858 59.6434 63.4303 54.9059 61.6218 52.6719Z" fill="white"/>
<path id="Vector_11" d="M24.0239 37.7384L18.92 37.5102C17.0328 37.4258 15.4345 38.8873 15.3502 40.7745L15.3154 41.5512C15.231 43.4384 16.6925 45.0367 18.5797 45.1211L23.6836 45.3493C25.5708 45.4337 27.1691 43.9722 27.2535 42.085L27.2882 41.3083C27.3726 39.4211 25.9111 37.8228 24.0239 37.7384Z" fill="#98B4E7"/>
<path id="Vector_12" d="M25.4615 40.9746L33.3184 46.3139L32.1284 48.0651L24.2715 42.7258L25.4615 40.9746Z" fill="#98B4E7"/>
<path id="Vector_13" d="M66.6506 69.699L61.7276 70.134L61.6826 62.168H64.8051C65.4194 64.678 66.0346 67.1883 66.6506 69.699Z" fill="#030712"/>
<path id="Vector_14" d="M78.6347 28.4257L73.6074 27.9764L74.461 18.4238L79.4883 18.873L78.6347 28.4257Z" fill="#E67925"/>
<path id="Vector_15" d="M77.7037 9.41004C76.829 9.27065 75.9339 9.33379 75.0874 9.5946C74.241 9.85541 73.4656 10.3069 72.821 10.9144C72.1764 11.522 71.6798 12.2692 71.3693 13.0988C71.0588 13.9284 70.9428 14.8181 71.0302 15.6995L71.2677 20.205C71.3542 21.8515 72.5007 23.292 73.9537 23.6495C74.1563 23.6987 74.363 23.7289 74.5712 23.7395C74.6782 23.75 74.7877 23.758 74.9017 23.7585C77.1237 23.7735 78.7127 21.7175 79.6017 20.568C79.7517 20.373 79.9207 20.1415 80.0957 19.8755C81.0431 19.2167 81.7719 18.2896 82.1883 17.2134C82.6048 16.1372 82.69 14.9611 82.4329 13.8361C82.1758 12.7111 81.5881 11.6887 80.7455 10.9003C79.9029 10.1119 78.8437 9.59341 77.7042 9.41154L77.7037 9.41004Z" fill="#E67925"/>
<path id="Vector_16" d="M74.8008 20.1076C74.796 20.1081 74.7911 20.1081 74.7863 20.1076L74.0973 20.0076C74.046 20.0002 73.9971 19.9813 73.9541 19.9523C73.9111 19.9233 73.8753 19.8849 73.8492 19.8401C73.8232 19.7953 73.8076 19.7452 73.8036 19.6935C73.7996 19.6418 73.8074 19.5899 73.8263 19.5416L74.5403 17.7176C74.5508 17.6941 74.5699 17.6754 74.5938 17.6656C74.6176 17.6559 74.6443 17.6556 74.6683 17.6651C74.6923 17.6745 74.7117 17.6928 74.7225 17.7162C74.7333 17.7396 74.7347 17.7662 74.7263 17.7906L74.0128 19.6146C74.0047 19.6348 74.0013 19.6566 74.003 19.6782C74.0046 19.6999 74.0113 19.7209 74.0223 19.7396C74.0332 19.7583 74.0481 19.7744 74.0661 19.7865C74.084 19.7986 74.1044 19.8065 74.1258 19.8096L74.8153 19.9096C74.8419 19.9115 74.8665 19.9239 74.8839 19.944C74.9013 19.9641 74.91 19.9903 74.9081 20.0169C74.9062 20.0434 74.8938 20.0681 74.8737 20.0855C74.8535 20.1029 74.8274 20.1115 74.8008 20.1096V20.1076ZM73.0103 16.7491C72.9142 16.7337 72.8157 16.7472 72.7273 16.7878C72.6389 16.8283 72.5644 16.8943 72.5134 16.9771C72.4625 17.06 72.4372 17.1562 72.4408 17.2534C72.4445 17.3507 72.4769 17.4446 72.534 17.5235C72.5911 17.6023 72.6702 17.6624 72.7615 17.6962C72.8527 17.7301 72.9519 17.7361 73.0466 17.7135C73.1413 17.6909 73.2271 17.6408 73.2933 17.5694C73.3594 17.4981 73.403 17.4087 73.4183 17.3126C73.4388 17.1838 73.4073 17.0521 73.3308 16.9465C73.2544 16.8409 73.1391 16.7699 73.0103 16.7491ZM76.7008 17.3386C76.6048 17.3232 76.5063 17.3367 76.4179 17.3773C76.3294 17.4179 76.255 17.4837 76.2041 17.5666C76.1531 17.6495 76.1278 17.7456 76.1314 17.8428C76.1351 17.94 76.1674 18.034 76.2245 18.1128C76.2815 18.1916 76.3606 18.2518 76.4518 18.2857C76.543 18.3195 76.6422 18.3256 76.7368 18.3031C76.8315 18.2806 76.9174 18.2306 76.9836 18.1593C77.0498 18.088 77.0934 17.9987 77.1088 17.9026C77.1293 17.7738 77.0979 17.642 77.0214 17.5363C76.9449 17.4306 76.8296 17.3595 76.7008 17.3386ZM78.1073 16.2706C77.6353 15.6536 76.7623 15.7276 76.6163 15.7401C76.4928 15.7506 76.0738 15.7901 76.0248 15.9776C75.9968 16.0851 76.1013 16.1961 76.1058 16.2006C76.3333 16.4371 76.7403 16.1201 77.2733 16.2121C77.8913 16.3181 78.2078 16.8931 78.3063 16.8121C78.3718 16.7611 78.2678 16.4806 78.1073 16.2706ZM73.5508 15.2306C73.4163 15.1716 72.6148 14.8191 71.9678 15.2506C71.7488 15.3971 71.5593 15.6286 71.6043 15.7006C71.6718 15.8081 72.1568 15.3661 72.7763 15.4656C73.3103 15.5511 73.5928 15.9831 73.8848 15.8326C73.8903 15.8326 74.0248 15.7586 74.0348 15.6476C74.0508 15.4516 73.6648 15.2806 73.5508 15.2306Z" fill="#262246"/>
<path id="Vector_17" d="M74.7622 23.8894C74.5254 23.8894 74.2892 23.8668 74.0567 23.8219C74.0431 23.8202 74.03 23.8158 74.0182 23.8089C74.0064 23.8019 73.9961 23.7926 73.9881 23.7816C73.98 23.7705 73.9743 23.7579 73.9713 23.7445C73.9683 23.7312 73.9681 23.7173 73.9707 23.7039C73.9733 23.6904 73.9786 23.6776 73.9863 23.6663C73.994 23.655 74.0039 23.6454 74.0155 23.6381C74.0271 23.6308 74.0401 23.6259 74.0536 23.6238C74.0671 23.6217 74.0809 23.6225 74.0942 23.6259C74.66 23.7354 75.244 23.7036 75.7946 23.5335C76.3452 23.3633 76.8453 23.06 77.2507 22.6504C77.2597 22.6403 77.2707 22.6322 77.283 22.6265C77.2953 22.6208 77.3086 22.6176 77.3222 22.6172C77.3357 22.6168 77.3492 22.6192 77.3618 22.6241C77.3744 22.6291 77.3858 22.6366 77.3955 22.6461C77.4051 22.6556 77.4127 22.667 77.4178 22.6796C77.4229 22.6921 77.4254 22.7056 77.4251 22.7191C77.4249 22.7326 77.4219 22.746 77.4163 22.7583C77.4107 22.7707 77.4027 22.7818 77.3927 22.7909C77.0487 23.1394 76.6389 23.4161 76.187 23.605C75.7352 23.7938 75.2504 23.891 74.7607 23.8909L74.7622 23.8894ZM83.2447 64.8424L88.2447 78.0424C88.7547 83.1844 89.2644 88.3263 89.7737 93.4679H74.3582L73.1082 82.8889C72.1322 86.4156 71.1559 89.9419 70.1792 93.4679H53.1377L62.7207 63.7244L83.2447 64.8424Z" fill="#030712"/>
<path id="Vector_18" d="M76.1973 26.1309H67.2473C65.4136 26.1309 63.6258 26.7046 62.1346 27.7716C60.6433 28.8385 59.5232 30.3454 58.9313 32.0809L49.0312 61.1149L57.1578 66.2804C60.5668 56.0454 63.9761 45.8104 67.3857 35.5754L76.1973 26.1309Z" fill="#E67925"/>
<path id="Vector_19" d="M62.8447 27.4584L76.1947 26.1309L89.7887 29.9694L83.8502 67.0074L63.4952 65.6629L62.8447 27.4584Z" fill="#008000"/>
<path id="Vector_20" d="M45.7275 30.9062C49.6415 41.9062 53.5553 52.9076 57.469 63.9102C57.6975 66.7533 55.719 69.3382 52.915 69.8602C50.111 70.3822 47.345 68.6802 46.5345 65.9487C44.2935 55.4724 42.0528 44.9959 39.8125 34.5192L45.7275 30.9062Z" fill="#E67925"/>
<path id="Vector_21" d="M76.1977 26.1307L65.9217 25.3967C64.3154 25.2824 62.7185 25.7214 61.3964 26.6407C60.0743 27.56 59.1067 28.9042 58.6547 30.4497L53.7012 47.4192L62.6147 51.7902L66.5222 35.3902L76.1977 26.1307Z" fill="#008000"/>
<path id="Vector_22" d="M62.6977 39.7207C62.0796 53.5002 60.261 67.1996 57.2627 80.6632C60.8187 82.6257 65.5127 84.3702 69.8867 82.8327C76.5012 80.5077 78.0642 72.2167 82.1832 72.4032C83.7582 72.4742 85.9617 73.8262 88.4332 79.9567L88.9402 78.6352C89.5144 77.1366 89.595 75.4938 89.1702 73.9462C88.2532 70.6042 87.3365 67.262 86.4202 63.9197L87.9442 44.5257L62.6977 39.7207Z" fill="#008000"/>
<path id="Vector_23" d="M76.1973 26.1309L85.9903 28.2209C87.6258 28.5699 89.1312 29.3693 90.3364 30.5288C91.5416 31.6882 92.3987 33.1615 92.8108 34.7824L97.8438 54.5764C98.0179 55.261 97.9181 55.9866 97.5658 56.5989L86.0158 76.6614C85.7798 76.6554 84.1263 76.5844 83.0158 75.1829C82.0848 74.0104 82.1608 72.7009 82.1858 72.4029L89.5283 54.5784L82.2508 34.3129L76.1973 26.1309Z" fill="#E67925"/>
<path id="Vector_24" d="M76.1973 26.1309L85.8078 27.6754C87.6272 27.9679 89.3169 28.8001 90.6579 30.0641C91.9989 31.3282 92.9294 32.9658 93.3288 34.7649L96.9073 50.8934L87.9428 53.6724L83.0763 37.8084L76.1973 26.1309Z" fill="#008000"/>
<path id="Vector_25" d="M73.7852 25.954C73.7852 25.954 73.8987 27.626 75.8542 28.1785C77.8097 28.731 78.7962 26.5885 78.7962 26.5885L76.6227 25.041L73.7852 25.954Z" fill="#E67925"/>
<path id="Vector_26" d="M79.4848 18.8737L79.8293 15.8637C79.8293 15.8637 77.2333 15.6722 77.7948 12.6137C78.3563 9.55521 77.0183 13.3507 75.2448 13.1317C73.4713 12.9127 73.4243 12.0957 73.4243 12.0957C73.0743 13.2827 72.1318 14.1207 71.0743 14.2122C69.5518 14.3437 68.6243 12.8557 68.5128 12.6732C67.5628 11.1512 67.7368 8.54271 69.6278 7.29571C71.2233 6.24571 73.4598 6.54571 74.8003 8.07271C74.8003 8.07271 76.0598 6.04371 77.3223 7.83371C77.3223 7.83371 79.7858 7.05671 81.6178 7.91321C83.4498 8.76971 82.5778 11.4587 82.5778 11.4587C82.5778 11.4587 84.1673 12.3947 84.0078 14.6452C83.8483 16.8957 82.8128 17.7282 82.8128 17.7282C82.8128 17.7282 82.9763 21.6912 79.1403 22.7192L79.4848 18.8737Z" fill="#030712"/>
<path id="Vector_27" d="M80.7368 17.5818C80.1623 17.1533 79.2903 17.3513 78.7868 18.0238C78.2833 18.6963 78.3443 19.5888 78.9188 20.0173C79.4933 20.4458 80.3658 20.2473 80.8688 19.5748C81.3718 18.9023 81.3113 18.0103 80.7368 17.5818Z" fill="#E67925"/>
<path id="Vector_28" d="M79.3911 19.6609C79.3646 19.6632 79.3382 19.6548 79.3179 19.6377C79.2975 19.6205 79.2848 19.596 79.2826 19.5694C79.2803 19.5429 79.2887 19.5166 79.3059 19.4962C79.323 19.4759 79.3476 19.4632 79.3741 19.4609C79.4776 19.4457 79.5736 19.3979 79.6481 19.3244C79.7226 19.2509 79.7718 19.1557 79.7885 19.0524C79.8052 18.9491 79.7886 18.8431 79.7411 18.7499C79.6935 18.6567 79.6175 18.5811 79.5241 18.5339C79.5028 18.5232 79.4861 18.5052 79.4769 18.4832C79.4678 18.4612 79.4668 18.4366 79.4741 18.4139C79.4816 18.3915 79.4968 18.3725 79.5171 18.3602C79.5373 18.3479 79.5612 18.3432 79.5846 18.3469L80.5451 18.5004C80.5581 18.5025 80.5706 18.5071 80.5818 18.514C80.593 18.5209 80.6028 18.53 80.6105 18.5407C80.6182 18.5514 80.6237 18.5635 80.6268 18.5763C80.6298 18.5891 80.6302 18.6024 80.6281 18.6154C80.6238 18.6415 80.6093 18.6649 80.5879 18.6803C80.5664 18.6958 80.5397 18.7021 80.5136 18.6979L79.8766 18.5979C79.9406 18.6943 79.9793 18.8051 79.9891 18.9204C79.9989 19.0356 79.9796 19.1514 79.9329 19.2572C79.8861 19.3629 79.8135 19.4552 79.7217 19.5255C79.6299 19.5958 79.5219 19.6419 79.4076 19.6594L79.3911 19.6609Z" fill="#262246"/>
<path id="Vector_29" d="M61.9367 50.9347H61.9247C61.9116 50.9331 61.899 50.9289 61.8876 50.9224C61.8762 50.916 61.8661 50.9073 61.8581 50.897C61.85 50.8866 61.844 50.8748 61.8405 50.8621C61.837 50.8494 61.8361 50.8362 61.8377 50.8232L64.0922 32.2992C64.0937 32.2861 64.0978 32.2735 64.1043 32.262C64.1107 32.2505 64.1194 32.2404 64.1297 32.2323C64.1401 32.2241 64.152 32.2181 64.1647 32.2146C64.1773 32.2111 64.1906 32.2101 64.2037 32.2117C64.2167 32.2133 64.2293 32.2175 64.2407 32.2239C64.2521 32.2304 64.2622 32.2391 64.2703 32.2494C64.2783 32.2598 64.2843 32.2716 64.2878 32.2843C64.2913 32.2969 64.2923 32.3101 64.2907 32.3232L62.0362 50.8492C62.0327 50.873 62.0207 50.8948 62.0024 50.9105C61.9841 50.9262 61.9608 50.9348 61.9367 50.9347ZM87.3652 51.8897H87.3577C87.3446 51.8887 87.3318 51.8852 87.32 51.8793C87.3083 51.8734 87.2978 51.8653 87.2893 51.8553C87.2807 51.8454 87.2741 51.8339 87.27 51.8214C87.2659 51.8089 87.2642 51.7958 87.2652 51.7827L88.4702 35.2912C88.4722 35.2648 88.4846 35.2403 88.5047 35.2231C88.5247 35.2058 88.5508 35.1973 88.5772 35.1992C88.5903 35.2001 88.6031 35.2037 88.6148 35.2095C88.6265 35.2154 88.637 35.2236 88.6456 35.2335C88.6542 35.2435 88.6607 35.255 88.6649 35.2675C88.669 35.2799 88.6706 35.2931 88.6697 35.3062L87.4647 51.7992C87.4623 51.8239 87.4508 51.8469 87.4324 51.8637C87.414 51.8804 87.39 51.8897 87.3652 51.8897Z" fill="#030712"/>
<path id="Vector_30" d="M46.6838 35.866L47.9588 31.1495L50.3888 29.6445C50.9013 29.0515 50.9458 28.2095 50.5278 27.633C50.1978 27.1775 49.6198 26.944 49.0308 27.0155L46.6838 27.8895L44.1268 25.0215L38.6768 29.841L41.1468 34.014L46.6838 35.866Z" fill="#E67925"/>
<path id="Vector_31" d="M47.4834 33.8143C46.9396 33.815 46.4049 33.6745 45.9317 33.4067C45.4584 33.1389 45.0627 32.7528 44.7834 32.2863C44.4269 31.6911 44.2775 30.9947 44.3583 30.3057C44.4391 29.6166 44.7457 28.9737 45.2302 28.4772C45.7147 27.9806 46.3499 27.6584 47.0367 27.5606C47.7235 27.4629 48.4234 27.5952 49.0272 27.9369C49.6309 28.2786 50.1047 28.8105 50.3745 29.4496C50.6443 30.0887 50.6951 30.7992 50.5188 31.4702C50.3426 32.1411 49.9492 32.735 49.4002 33.159C48.8511 33.583 48.1771 33.8134 47.4834 33.8143ZM45.1259 32.0813C45.4513 32.6256 45.9553 33.0402 46.5522 33.2545C47.149 33.4688 47.8017 33.4695 48.399 33.2566C48.9963 33.0436 49.5013 32.6301 49.8279 32.0866C50.1546 31.543 50.2826 30.903 50.1903 30.2756C50.0979 29.6482 49.7909 29.0723 49.3215 28.6459C48.8521 28.2195 48.2494 27.9691 47.616 27.9372C46.9827 27.9054 46.3579 28.0942 45.8481 28.4714C45.3384 28.8486 44.9751 29.3908 44.8204 30.0058C44.6433 30.7108 44.7532 31.4572 45.1259 32.0813Z" fill="#030712"/>
<path id="Vector_32" d="M47.2598 36.6074L47.3283 40.7219L47.3388 41.3604C47.3394 41.3993 47.3321 41.4379 47.3173 41.4738C47.3026 41.5097 47.2806 41.5423 47.2528 41.5694L47.0623 41.7549L47.3458 42.0549C47.3533 42.4099 47.3588 42.6549 47.3663 43.0109L47.1388 43.2719L47.3788 43.7824C47.2948 44.1589 47.0763 44.4917 46.7643 44.7184C46.604 44.6188 46.4677 44.485 46.3651 44.3267C46.2624 44.1684 46.1959 43.9894 46.1703 43.8024L46.0508 36.6274L47.2598 36.6074Z" fill="white"/>
<path id="Vector_33" d="M46.7476 43.8547L46.5591 43.8602L46.3818 37.7477L46.5703 37.7422L46.7476 43.8547Z" fill="#030712"/>
<path id="Vector_34" d="M44.2169 33.4301L44.2764 37.0226C44.2778 37.1 44.2944 37.1764 44.3253 37.2474C44.3562 37.3184 44.4007 37.3826 44.4564 37.4364C44.5122 37.4901 44.5779 37.5324 44.65 37.5608C44.722 37.5891 44.799 37.603 44.8764 37.6016L48.4689 37.5416C48.5463 37.5403 48.6228 37.5238 48.6938 37.493C48.7648 37.4621 48.8291 37.4175 48.8828 37.3618C48.9366 37.306 48.9788 37.2402 49.007 37.1681C49.0353 37.096 49.049 37.019 49.0474 36.9416L48.9864 33.3506C48.985 33.2732 48.9684 33.1968 48.9375 33.1258C48.9066 33.0548 48.8621 32.9906 48.8063 32.9368C48.7506 32.883 48.6849 32.8408 48.6128 32.8124C48.5407 32.7841 48.4638 32.7702 48.3864 32.7716L44.7939 32.8316C44.638 32.8345 44.4897 32.8991 44.3815 33.0114C44.2733 33.1236 44.2141 33.2742 44.2169 33.4301ZM45.3764 33.7301C45.3749 33.6403 45.4092 33.5535 45.4716 33.4889C45.534 33.4243 45.6196 33.3872 45.7094 33.3856L47.4929 33.3561C47.5383 33.3537 47.5838 33.3606 47.6265 33.3762C47.6693 33.3918 47.7084 33.4158 47.7417 33.4469C47.7749 33.4779 47.8016 33.5154 47.8201 33.5569C47.8386 33.5985 47.8485 33.6434 47.8493 33.6889C47.85 33.7344 47.8416 33.7796 47.8246 33.8217C47.8075 33.8639 47.7822 33.9022 47.75 33.9344C47.7178 33.9666 47.6795 33.9919 47.6373 34.009C47.5951 34.026 47.5499 34.0344 47.5044 34.0336L45.7204 34.0631C45.6308 34.0646 45.5442 34.0304 45.4798 33.9682C45.4153 33.906 45.3781 33.8207 45.3764 33.7311V33.7301Z" fill="#008000"/>
<path id="Vector_35" d="M53.3748 39.845L55.1557 38.1788C55.629 37.7359 55.6537 36.9933 55.2109 36.5199L50.9957 32.0147C50.5529 31.5414 49.8102 31.5167 49.3369 31.9596L47.556 33.6257C47.0827 34.0686 47.058 34.8113 47.5008 35.2846L51.716 39.7898C52.1588 40.2631 52.9015 40.2878 53.3748 39.845Z" fill="#98B4E7"/>
<path id="Vector_36" d="M49.5576 35.4519L51.0242 34.0797C51.1716 33.9418 51.1792 33.7106 51.0414 33.5633L50.6825 33.1796C50.5446 33.0323 50.3134 33.0246 50.166 33.1625L48.6994 34.5346C48.5521 34.6725 48.5444 34.9037 48.6823 35.0511L49.0412 35.4347C49.179 35.582 49.4103 35.5897 49.5576 35.4519Z" fill="#008000"/>
<path id="Vector_37" d="M51.1676 37.1517L52.6345 35.779C52.7819 35.6411 52.7896 35.4098 52.6516 35.2624L52.2926 34.8787C52.1546 34.7313 51.9233 34.7237 51.776 34.8616L50.3091 36.2343C50.1617 36.3722 50.154 36.6035 50.2919 36.7509L50.651 37.1346C50.7889 37.282 51.0202 37.2897 51.1676 37.1517Z" fill="#008000"/>
<path id="Vector_38" d="M52.7158 38.823L54.1824 37.4508C54.3298 37.3129 54.3375 37.0817 54.1996 36.9344L53.8407 36.5507C53.7028 36.4034 53.4716 36.3957 53.3242 36.5336L51.8576 37.9057C51.7103 38.0436 51.7026 38.2748 51.8405 38.4222L52.1994 38.8058C52.3373 38.9531 52.5685 38.9608 52.7158 38.823Z" fill="#008000"/>
<path id="Vector_39" d="M48.6549 33.5115C48.6101 33.5115 48.5667 33.4964 48.5315 33.4687C48.4963 33.441 48.4714 33.4024 48.4608 33.3589C48.4502 33.3153 48.4545 33.2695 48.473 33.2288C48.4915 33.188 48.5232 33.1546 48.5629 33.134C49.9964 32.389 50.1674 31.2195 50.1739 31.1705C50.1825 31.1196 50.2105 31.0741 50.2519 31.0433C50.2933 31.0126 50.345 30.999 50.3961 31.0055C50.4473 31.0119 50.494 31.0379 50.5265 31.078C50.5589 31.118 50.5747 31.1691 50.5704 31.2205C50.5634 31.2785 50.3749 32.643 48.7469 33.489C48.7186 33.5039 48.687 33.5116 48.6549 33.5115Z" fill="#030712"/>
<path id="Vector_40" d="M41.293 35.833L37.722 32.614C37.2466 32.1855 36.9243 31.6133 36.8041 30.9846C36.684 30.3559 36.7726 29.7052 37.0565 29.1315L39.1005 25.004C39.2799 24.6406 39.5379 24.3216 39.8556 24.0701C40.1734 23.8185 40.5431 23.6407 40.938 23.5495L44.5595 22.7155C44.8978 22.6376 45.2524 22.6749 45.567 22.8216C45.8817 22.9683 46.1382 23.2159 46.296 23.525C47.0197 24.942 47.7429 26.3587 48.4655 27.775C48.5655 28.159 48.451 28.5605 48.1715 28.805C47.8215 29.1135 47.257 29.125 46.847 28.805L44.615 26.3245L46.847 28.8075C46.9058 29.0374 46.8978 29.2792 46.8239 29.5047C46.7501 29.7302 46.6135 29.9299 46.4302 30.0805C46.2468 30.231 46.0244 30.3262 45.7889 30.3548C45.5534 30.3835 45.3146 30.3443 45.1005 30.242L43.1695 28.605L45.2695 30.323C45.3962 30.7091 45.3648 31.1296 45.182 31.4925C44.874 32.086 44.2855 32.2375 44.198 32.2585L41.0355 30.323L43.693 32.293C44.0865 32.7835 44.0375 33.487 43.61 33.893C43.227 34.257 42.616 34.3101 42.148 34.003L41.293 35.833Z" fill="#E67925"/>
<path id="Vector_41" d="M43.8441 33.3333C43.6714 33.3309 43.501 33.2924 43.3441 33.2203L40.4596 31.9268H39.2096C39.1831 31.9268 39.1576 31.9163 39.1389 31.8975C39.1201 31.8788 39.1096 31.8533 39.1096 31.8268C39.1096 31.8003 39.1201 31.7748 39.1389 31.7561C39.1576 31.7373 39.1831 31.7268 39.2096 31.7268H40.4786C40.4927 31.7269 40.5067 31.7299 40.5196 31.7358L43.4256 33.0388C43.4951 33.0713 43.8466 33.2223 44.1466 33.0603C44.4561 32.8933 44.6541 32.4008 44.4426 31.8893L41.7861 29.7543C41.4646 29.4962 41.0649 29.3551 40.6526 29.3543H39.1176C39.0911 29.3543 39.0656 29.3438 39.0469 29.325C39.0281 29.3063 39.0176 29.2808 39.0176 29.2543C39.0176 29.2278 39.0281 29.2023 39.0469 29.1836C39.0656 29.1648 39.0911 29.1543 39.1176 29.1543H40.6526C41.112 29.1546 41.5576 29.3118 41.9156 29.5998L44.5921 31.7498C44.6045 31.7601 44.6144 31.7731 44.6211 31.7878C44.8676 32.3543 44.7031 32.9908 44.2461 33.2378C44.1221 33.3025 43.9839 33.3354 43.8441 33.3333Z" fill="#030712"/>
<path id="Vector_42" d="M44.5299 31.9272C44.5034 31.929 44.4773 31.9202 44.4573 31.9027C44.4372 31.8852 44.425 31.8605 44.4232 31.834C44.4214 31.8075 44.4302 31.7813 44.4477 31.7613C44.4652 31.7413 44.4899 31.729 44.5164 31.7272C44.7427 31.6998 44.9521 31.5936 45.1079 31.4272C45.3909 31.1052 45.4079 30.5892 45.1494 30.1392L42.8329 27.8972C42.6724 27.7414 42.4808 27.6211 42.2707 27.5441C42.0606 27.4671 41.8367 27.4351 41.6134 27.4502L40.1594 27.5472C40.1329 27.549 40.1068 27.5401 40.0868 27.5226C40.0669 27.505 40.0547 27.4803 40.0529 27.4537C40.0512 27.4272 40.0601 27.4011 40.0776 27.3811C40.0952 27.3612 40.1199 27.349 40.1464 27.3472L41.6009 27.2502C41.8518 27.2332 42.1034 27.2689 42.3397 27.355C42.5759 27.4411 42.7914 27.5757 42.9724 27.7502L45.2994 30.0002C45.3059 30.0066 45.3114 30.0139 45.3159 30.0217C45.6239 30.5487 45.6009 31.1647 45.2589 31.5547C45.0713 31.7569 44.8186 31.8866 44.5449 31.9212C44.5402 31.9238 44.5352 31.9258 44.5299 31.9272Z" fill="#030712"/>
<path id="Vector_43" d="M45.7402 30.3045C45.5455 30.3043 45.3538 30.2566 45.1817 30.1655C45.1582 30.1531 45.1406 30.1319 45.1328 30.1065C45.125 30.0811 45.1276 30.0537 45.1399 30.0302C45.1523 30.0068 45.1736 29.9892 45.1989 29.9813C45.2243 29.9735 45.2517 29.9761 45.2752 29.9885C45.4571 30.0862 45.6653 30.1241 45.87 30.0966C46.0747 30.0691 46.2654 29.9776 46.4151 29.8353C46.5648 29.6929 46.6656 29.507 46.7034 29.3039C46.7411 29.1009 46.7137 28.8911 46.6252 28.7045L44.6387 25.7225C44.485 25.4921 44.2716 25.3079 44.0213 25.1895C43.771 25.071 43.4933 25.0228 43.2177 25.05L41.1737 25.25C41.1606 25.2513 41.1473 25.2499 41.1347 25.2461C41.1221 25.2423 41.1103 25.236 41.1001 25.2276C41.0899 25.2192 41.0815 25.2089 41.0753 25.1973C41.0691 25.1856 41.0652 25.1729 41.064 25.1597C41.0627 25.1466 41.064 25.1333 41.0678 25.1207C41.0717 25.1081 41.078 25.0964 41.0863 25.0862C41.0947 25.076 41.105 25.0675 41.1167 25.0613C41.1283 25.0551 41.1411 25.0513 41.1542 25.05L43.2002 24.85C43.5119 24.8195 43.8261 24.8744 44.1091 25.0087C44.392 25.143 44.6332 25.3517 44.8067 25.6125L46.8002 28.6065C46.9073 28.8288 46.9426 29.079 46.9012 29.3223C46.8598 29.5656 46.7438 29.79 46.5692 29.9645C46.3486 30.1828 46.0506 30.305 45.7402 30.3045Z" fill="#030712"/>
<path id="Vector_44" d="M47.5166 29.15C47.3475 29.1492 47.1807 29.1106 47.0285 29.0369C46.8763 28.9631 46.7425 28.8562 46.6371 28.724C46.6206 28.7032 46.6129 28.6767 46.6159 28.6503C46.6188 28.6239 46.6321 28.5998 46.6529 28.5832C46.6736 28.5666 46.7001 28.559 46.7265 28.5619C46.7529 28.5649 46.7771 28.5782 46.7936 28.599C46.9208 28.7655 47.1022 28.8824 47.3064 28.9292C47.5107 28.9761 47.7249 28.95 47.9119 28.8555C48.0989 28.7609 48.247 28.604 48.3304 28.4117C48.4138 28.2195 48.4274 28.0041 48.3686 27.803C48.3631 27.7777 48.3676 27.7513 48.3812 27.7292C48.3947 27.7072 48.4163 27.6913 48.4413 27.6848C48.4664 27.6784 48.4929 27.6818 48.5155 27.6945C48.538 27.7072 48.5547 27.7282 48.5621 27.753C48.6312 28.0101 48.6063 28.2834 48.4921 28.5238C48.3778 28.7643 48.1816 28.9561 47.9386 29.065C47.8051 29.1215 47.6616 29.1504 47.5166 29.15Z" fill="#030712"/>
<path id="Vector_45" d="M74.0156 20.9194L76.2561 20.6504C76.1721 21.2684 75.6561 21.7169 75.0911 21.7109C74.6241 21.7064 74.1906 21.3909 74.0156 20.9194Z" fill="white"/>
</g>
</g>
</g>
</svg>
