<svg width="24" height="21" viewBox="0 0 24 21" fill="none" xmlns="http://www.w3.org/2000/svg">
<path id="Vector" fill-rule="evenodd" clip-rule="evenodd" d="M2.448 3.85559L16.512 0.0875939C17.1707 -0.0888656 17.8725 0.00353211 18.463 0.344464C19.0536 0.685397 19.4846 1.24694 19.6611 1.90559L20.1831 3.85302H21.4286C22.1106 3.85302 22.7646 4.12394 23.2468 4.60618C23.7291 5.08841 24 5.74247 24 6.42445V8.99588H16.2857C15.8311 8.99588 15.395 9.17649 15.0735 9.49798C14.752 9.81947 14.5714 10.2555 14.5714 10.7102V13.2816C14.5714 13.7363 14.752 14.1723 15.0735 14.4938C15.395 14.8153 15.8311 14.9959 16.2857 14.9959H24V17.5673C24 18.2493 23.7291 18.9033 23.2468 19.3856C22.7646 19.8678 22.1106 20.1387 21.4286 20.1387H2.57143C1.88944 20.1387 1.23539 19.8678 0.753154 19.3856C0.270918 18.9033 0 18.2493 0 17.5673V6.42445C0.000108957 5.76383 0.254383 5.12857 0.710128 4.65033C1.16587 4.17208 1.78815 3.88751 2.448 3.85559ZM24 10.7102V13.2816H16.2857V10.7102H24ZM18.4089 3.85302L18.006 2.34959C17.9769 2.24085 17.9266 2.13892 17.858 2.04961C17.7895 1.9603 17.704 1.88537 17.6065 1.8291C17.509 1.77282 17.4014 1.73631 17.2898 1.72164C17.1782 1.70697 17.0647 1.71443 16.956 1.74359L9.08229 3.85302H18.4089Z" fill="#030712"/>
</svg>
