<svg width="44" height="14" viewBox="0 0 44 14" fill="none" xmlns="http://www.w3.org/2000/svg">
<g id="Group">
<path id="Vector" d="M17.9851 0L15.7768 13.7418H19.3065L21.5134 0H17.9851ZM28.6318 5.59765C27.3983 4.98854 26.6422 4.57744 26.6422 3.95446C26.6573 3.38803 27.2816 2.80772 28.6758 2.80772C29.8225 2.77892 30.6654 3.04841 31.3048 3.31654L31.6251 3.45951L32.105 0.584376C31.4078 0.314885 30.3024 0.0179454 28.937 0.0179454C25.4514 0.0179454 22.997 1.83019 22.9818 4.42211C22.953 6.33479 24.739 7.39617 26.0756 8.03288C27.441 8.68602 27.9058 9.10949 27.9058 9.68979C27.8907 10.5808 26.8017 10.9919 25.7856 10.9919C24.3777 10.9919 23.6214 10.7801 22.4733 10.2837L22.0085 10.0719L21.5149 13.0599C22.344 13.4284 23.8688 13.7528 25.4516 13.7694C29.1558 13.7694 31.5662 11.9846 31.5965 9.22229C31.6085 7.70698 30.6668 6.54637 28.6318 5.59765ZM41.1539 0.0425272H38.423C37.5815 0.0425272 36.9421 0.284572 36.5778 1.14809L31.3348 13.7418H35.0391L36.0593 11.0152H40.2036L40.733 13.7528H44L41.1539 0.0425272ZM37.0866 8.26361C37.1581 8.27055 38.5084 3.8127 38.5084 3.8127L39.5837 8.26361H37.0866ZM12.8275 0L9.36936 9.3363L8.99264 7.4951C8.35322 5.37068 6.34855 3.06213 4.11133 1.9154L7.27797 13.7281H11.0126L16.5621 0.00150724H12.8275V0Z" fill="#030712"/>
<path id="Vector_2" d="M7.82929 1.77347C7.5598 0.725668 6.70035 0.0189869 5.5331 0.00390625H0.0564018L0 0.258166C4.27221 1.3114 7.85809 4.55224 9.02142 7.60065L7.82929 1.77347Z" fill="#EFC75E"/>
</g>
</svg>
