<svg width="24" height="25" viewBox="0 0 24 25" fill="none" xmlns="http://www.w3.org/2000/svg">
<g id="24 / Attach">
<path id="Fill 1" fill-rule="evenodd" clip-rule="evenodd" d="M13.4682 3.49014C14.538 3.37718 15.6311 3.65205 16.4509 4.12532C17.2706 4.59858 18.0552 5.40783 18.4923 6.39081C18.9415 7.40104 19.0376 8.64488 18.348 9.83942L13.848 17.6336C13.6013 18.0609 13.1213 18.6126 12.4212 18.928C11.6637 19.2691 10.725 19.2947 9.74989 18.7317C8.77482 18.1688 8.32757 17.343 8.24429 16.5164C8.1673 15.7524 8.40514 15.0609 8.65181 14.6336L12.6518 7.70544C12.928 7.22715 13.5395 7.06327 14.0178 7.33942C14.4961 7.61556 14.66 8.22715 14.3839 8.70544L10.3839 15.6336C10.2972 15.7837 10.2083 16.0583 10.2342 16.3159C10.2539 16.5111 10.3393 16.7626 10.7499 16.9997C11.1605 17.2367 11.421 17.1849 11.5999 17.1044C11.836 16.998 12.0293 16.7837 12.1159 16.6336L16.6159 8.83942C16.9263 8.3019 16.9064 7.7467 16.6648 7.20341C16.4111 6.63287 15.9302 6.1341 15.4509 5.85737C14.9715 5.58063 14.2991 5.41352 13.6782 5.47908C13.0869 5.54151 12.5961 5.8019 12.2858 6.33942L7.28579 14.9997C6.63146 16.133 7.00005 18.2988 9.24989 19.5977C11.4997 20.8967 13.5597 20.133 14.214 18.9997L17.714 12.9375C17.9901 12.4592 18.6017 12.2953 19.08 12.5715C19.5583 12.8476 19.7222 13.4592 19.446 13.9375L15.946 19.9997C14.6004 22.3305 11.1962 23.0309 8.24989 21.3298C5.30358 19.6287 4.20806 16.3304 5.55374 13.9997L10.5537 5.33942C11.2434 4.14488 12.3687 3.60623 13.4682 3.49014Z" fill="#71717A"/>
</g>
</svg>
