<svg width="24" height="24" viewBox="0 0 24 24" fill="none" xmlns="http://www.w3.org/2000/svg">
<path d="M21.053 16.995L19.7705 15.15C19.5954 14.8992 19.5012 14.6009 19.5005 14.295V9C19.5005 7.01088 18.7103 5.10322 17.3038 3.6967C15.8973 2.29018 13.9896 1.5 12.0005 1.5C10.0114 1.5 8.10371 2.29018 6.69719 3.6967C5.29066 5.10322 4.50049 7.01088 4.50049 9V14.295C4.49976 14.6009 4.40555 14.8992 4.23049 15.15L2.94799 16.995C2.7538 17.2102 2.6261 17.477 2.58034 17.7632C2.53458 18.0494 2.57271 18.3427 2.69013 18.6077C2.80755 18.8727 2.99922 19.098 3.24197 19.2563C3.48472 19.4147 3.76815 19.4993 4.05799 19.5H8.32549C8.49762 20.3477 8.95753 21.1099 9.62729 21.6573C10.2971 22.2047 11.1355 22.5038 12.0005 22.5038C12.8655 22.5038 13.7039 22.2047 14.3737 21.6573C15.0434 21.1099 15.5033 20.3477 15.6755 19.5H19.943C20.2328 19.4993 20.5163 19.4147 20.759 19.2563C21.0017 19.098 21.1934 18.8727 21.3108 18.6077C21.4283 18.3427 21.4664 18.0494 21.4206 17.7632C21.3749 17.477 21.2472 17.2102 21.053 16.995ZM12.0005 21C11.5363 20.9987 11.0838 20.8538 10.7052 20.5853C10.3265 20.3168 10.0402 19.9377 9.88549 19.5H14.1155C13.9608 19.9377 13.6744 20.3168 13.2958 20.5853C12.9171 20.8538 12.4647 20.9987 12.0005 21ZM4.05799 18C4.09189 17.9685 4.12208 17.9333 4.14799 17.895L5.46049 16.005C5.81062 15.5034 5.99904 14.9067 6.00049 14.295V9C6.00049 7.4087 6.63263 5.88258 7.75785 4.75736C8.88306 3.63214 10.4092 3 12.0005 3C13.5918 3 15.1179 3.63214 16.2431 4.75736C17.3683 5.88258 18.0005 7.4087 18.0005 9V14.295C18.0019 14.9067 18.1904 15.5034 18.5405 16.005L19.853 17.895C19.8789 17.9333 19.9091 17.9685 19.943 18H4.05799Z" fill="white"/>
</svg>
