<svg width="24" height="25" viewBox="0 0 24 25" fill="none" xmlns="http://www.w3.org/2000/svg">
<path d="M21 9.79297H21.75C21.9489 9.79297 22.1397 9.71395 22.2803 9.5733C22.421 9.43265 22.5 9.24188 22.5 9.04297C22.5 8.84406 22.421 8.65329 22.2803 8.51264C22.1397 8.37199 21.9489 8.29297 21.75 8.29297H19.9245L18.7665 6.36322C18.432 5.80925 17.9604 5.35077 17.3973 5.03196C16.8341 4.71314 16.1984 4.54474 15.5513 4.54297H8.44875C7.13925 4.54297 5.907 5.24047 5.2335 6.36322L4.0755 8.29297H2.25C2.05109 8.29297 1.86032 8.37199 1.71967 8.51264C1.57902 8.65329 1.5 8.84406 1.5 9.04297C1.5 9.24188 1.57902 9.43265 1.71967 9.5733C1.86032 9.71395 2.05109 9.79297 2.25 9.79297H3L2.55 10.393C1.87046 11.3028 1.50226 12.4074 1.5 13.543V17.293C1.5 18.5335 2.5095 19.543 3.75 19.543H5.25C6.4905 19.543 7.5 18.5335 7.5 17.293H16.5C16.5 18.5335 17.5095 19.543 18.75 19.543H20.25C21.4905 19.543 22.5 18.5335 22.5 17.293V13.543C22.4979 12.4074 22.1296 11.3027 21.45 10.393L21 9.79297ZM6.51975 7.13572C6.7204 6.80328 7.00328 6.52811 7.34114 6.33672C7.679 6.14533 8.06045 6.04416 8.44875 6.04297H15.552C16.338 6.04297 17.0768 6.46147 17.481 7.13572L18.489 8.81572L17.9678 9.16297C17.3519 9.57431 16.6278 9.79357 15.8873 9.79297H8.112C7.3695 9.79297 6.65025 9.57547 6.03225 9.16372L5.511 8.81572L6.519 7.13497L6.51975 7.13572ZM21.0007 17.293C21.0007 17.7062 20.664 18.043 20.2507 18.043H18.7507C18.3375 18.043 18.0007 17.7062 18.0007 17.293V16.543C18.0007 16.3441 17.9217 16.1533 17.7811 16.0126C17.6404 15.872 17.4497 15.793 17.2507 15.793H6.75C6.55109 15.793 6.36032 15.872 6.21967 16.0126C6.07902 16.1533 6 16.3441 6 16.543V17.293C6 17.7062 5.66325 18.043 5.25 18.043H3.75C3.33675 18.043 3 17.7062 3 17.293V13.543C3 12.7367 3.26625 11.9372 3.75 11.293L4.674 10.0607L5.2005 10.4117C6.06232 10.9873 7.07565 11.294 8.112 11.293H15.8873C16.9239 11.2938 17.9375 10.9868 18.7995 10.411L19.3253 10.0607L20.2493 11.293C20.733 11.9372 20.9993 12.7367 20.9993 13.543V17.293H21.0007Z" fill="#030712"/>
<path d="M18.75 14.293C19.1642 14.293 19.5 13.9572 19.5 13.543C19.5 13.1288 19.1642 12.793 18.75 12.793C18.3358 12.793 18 13.1288 18 13.543C18 13.9572 18.3358 14.293 18.75 14.293Z" fill="#030712"/>
<path d="M5.25 14.293C5.66421 14.293 6 13.9572 6 13.543C6 13.1288 5.66421 12.793 5.25 12.793C4.83579 12.793 4.5 13.1288 4.5 13.543C4.5 13.9572 4.83579 14.293 5.25 14.293Z" fill="#030712"/>
</svg>
