<svg width="24" height="24" viewBox="0 0 24 24" fill="none" xmlns="http://www.w3.org/2000/svg">
<g id="Frame">
<g id="Group">
<path id="Vector" d="M21.1762 3.38938C21.1762 1.90703 19.9762 0.707031 18.4938 0.707031H5.5056C4.02324 0.707031 2.82324 1.90703 2.82324 3.38938V20.6129C2.82324 22.0953 4.02324 23.2953 5.5056 23.2953H18.4938C19.9762 23.2953 21.1762 22.0953 21.1762 20.6129V3.38938ZM19.7644 20.6129C19.7644 21.3188 19.1997 21.8835 18.4938 21.8835H5.5056C4.79971 21.8835 4.23501 21.3188 4.23501 20.6129V3.38938C4.23501 2.6835 4.79971 2.1188 5.5056 2.1188H18.4938C19.1997 2.1188 19.7644 2.6835 19.7644 3.38938V20.6129Z" fill="#030712"/>
<path id="Vector_2" d="M7.69354 13.4111H16.023C16.2347 13.4111 16.4465 13.3405 16.5877 13.1288C16.7288 12.9876 16.7994 12.7758 16.7288 12.5641C16.4465 10.8699 15.3877 9.52877 13.9759 8.89347C14.3994 8.39936 14.6818 7.76406 14.6818 6.98759C14.6818 5.43465 13.4112 4.16406 11.8582 4.16406C10.3053 4.16406 9.03472 5.43465 9.03472 6.98759C9.03472 7.69347 9.31707 8.32877 9.7406 8.89347C8.32884 9.59936 7.19943 10.9405 6.98766 12.5641C6.98766 12.7758 6.98766 12.9876 7.12884 13.1288C7.27001 13.3405 7.48178 13.4111 7.69354 13.4111ZM10.4465 7.05818C10.4465 6.28171 11.0818 5.64642 11.8582 5.64642C12.6347 5.64642 13.27 6.28171 13.27 7.05818C13.27 7.83465 12.6347 8.46994 11.8582 8.46994C11.0818 8.46994 10.4465 7.83465 10.4465 7.05818ZM11.8582 9.88171C13.27 9.88171 14.5406 10.7288 15.1053 11.9994H8.61119C9.1759 10.7288 10.4465 9.88171 11.8582 9.88171ZM17.6465 15.5288H6.35237C5.92884 15.5288 5.64648 15.8111 5.64648 16.2347C5.64648 16.6582 5.92884 16.9405 6.35237 16.9405H17.6465C18.07 16.9405 18.3524 16.6582 18.3524 16.2347C18.3524 15.8111 18.07 15.5288 17.6465 15.5288ZM17.6465 18.3523H6.35237C5.92884 18.3523 5.64648 18.6347 5.64648 19.0582C5.64648 19.4817 5.92884 19.7641 6.35237 19.7641H17.6465C18.07 19.7641 18.3524 19.4817 18.3524 19.0582C18.3524 18.6347 18.07 18.3523 17.6465 18.3523Z" fill="#030712"/>
</g>
</g>
</svg>
