<svg width="18" height="18" viewBox="0 0 18 18" fill="none" xmlns="http://www.w3.org/2000/svg">
<g clip-path="url(#clip0_575_13054)">
<path d="M9 0.875C4.34756 0.875 0.5625 4.08631 0.5625 8.03394C0.5625 9.71581 1.25775 11.3302 2.529 12.6189L1.16606 16.3719C1.12797 16.4765 1.12182 16.5902 1.14838 16.6983C1.17495 16.8065 1.23303 16.9044 1.31526 16.9795C1.3975 17.0546 1.50019 17.1037 1.61032 17.1204C1.72045 17.1371 1.83306 17.1207 1.93387 17.0733L6.597 14.8942C7.38169 15.0922 8.18888 15.1923 9 15.1923C13.6524 15.1923 17.4375 11.981 17.4375 8.03337C17.4375 4.08575 13.6524 0.875 9 0.875ZM4.91963 9.056C4.35544 9.056 3.897 8.59756 3.897 8.03394C3.897 7.47031 4.35544 7.01188 4.91963 7.01188C5.48325 7.01188 5.94169 7.47031 5.94169 8.03394C5.94169 8.59756 5.48325 9.056 4.91963 9.056ZM9 9.056C8.43638 9.056 7.97794 8.59756 7.97794 8.03394C7.97794 7.47031 8.43638 7.01188 9 7.01188C9.56363 7.01188 10.0221 7.47031 10.0221 8.03394C10.0221 8.59756 9.56363 9.056 9 9.056ZM13.0804 9.056C12.5167 9.056 12.0583 8.59756 12.0583 8.03394C12.0583 7.47031 12.5167 7.01188 13.0804 7.01188C13.6446 7.01188 14.103 7.47031 14.103 8.03394C14.103 8.59756 13.6446 9.056 13.0804 9.056Z" fill="white"/>
</g>
<defs>
<clipPath id="clip0_575_13054">
<rect width="18" height="18" fill="white"/>
</clipPath>
</defs>
</svg>
