<svg width="22" height="24" viewBox="0 0 22 24" fill="none" xmlns="http://www.w3.org/2000/svg">
<g id="copy-alt 1">
<path id="Vector" d="M14.6667 20H7.33333C6.60399 20 5.90451 19.6839 5.38879 19.1213C4.87306 18.5587 4.58333 17.7956 4.58333 17V7C4.58333 6.73478 4.48676 6.48043 4.31485 6.29289C4.14294 6.10536 3.90978 6 3.66667 6C3.42355 6 3.19039 6.10536 3.01849 6.29289C2.84658 6.48043 2.75 6.73478 2.75 7V17C2.75 18.3261 3.23289 19.5979 4.09243 20.5355C4.95197 21.4732 6.11776 22 7.33333 22H14.6667C14.9098 22 15.1429 21.8946 15.3148 21.7071C15.4868 21.5196 15.5833 21.2652 15.5833 21C15.5833 20.7348 15.4868 20.4804 15.3148 20.2929C15.1429 20.1054 14.9098 20 14.6667 20ZM19.25 8.94C19.2405 8.84813 19.222 8.75763 19.195 8.67V8.58C19.1509 8.47718 19.0921 8.38267 19.0208 8.3L13.5208 2.3C13.4451 2.22222 13.3584 2.15808 13.2642 2.11H13.1817L12.8883 2H9.16667C8.43732 2 7.73785 2.31607 7.22212 2.87868C6.7064 3.44129 6.41667 4.20435 6.41667 5V15C6.41667 15.7956 6.7064 16.5587 7.22212 17.1213C7.73785 17.6839 8.43732 18 9.16667 18H16.5C17.2293 18 17.9288 17.6839 18.4445 17.1213C18.9603 16.5587 19.25 15.7956 19.25 15V9C19.25 9 19.25 9 19.25 8.94ZM13.75 5.41L16.1242 8H14.6667C14.4236 8 14.1904 7.89464 14.0185 7.70711C13.8466 7.51957 13.75 7.26522 13.75 7V5.41ZM17.4167 15C17.4167 15.2652 17.3201 15.5196 17.1482 15.7071C16.9763 15.8946 16.7431 16 16.5 16H9.16667C8.92355 16 8.69039 15.8946 8.51849 15.7071C8.34658 15.5196 8.25 15.2652 8.25 15V5C8.25 4.73478 8.34658 4.48043 8.51849 4.29289C8.69039 4.10536 8.92355 4 9.16667 4H11.9167V7C11.9167 7.79565 12.2064 8.55871 12.7221 9.12132C13.2378 9.68393 13.9373 10 14.6667 10H17.4167V15Z" fill="#030712"/>
</g>
</svg>
