<svg width="56" height="48" viewBox="0 0 56 48" fill="none" xmlns="http://www.w3.org/2000/svg">
<rect x="0.5" y="0.5" width="55" height="47" rx="7.5" fill="#030712"/>
<rect x="0.5" y="0.5" width="55" height="47" rx="7.5" stroke="#D1D5DB"/>
<path d="M21.5372 18.8H19.3372C18.6039 18.8 18.0706 18.2 18.0706 17.5333V15.2667C18.0039 14.6 18.5372 14 19.2706 14H21.4706C22.2039 14 22.7372 14.6 22.7372 15.2667V17.5333C22.8039 18.2 22.2039 18.8 21.5372 18.8ZM21.4706 15.2667L19.2706 15.3333L19.3372 17.5333L21.4706 17.4667V15.2667ZM21.5372 17.4667C21.4706 17.4667 21.4706 17.4667 21.5372 17.4667V17.4667ZM38.0039 16.6C38.0039 16.2 37.7372 15.9333 37.3372 15.9333H25.3372C24.9372 15.9333 24.6706 16.2 24.6706 16.6C24.6706 17 24.9372 17.2667 25.3372 17.2667H37.3372C37.7372 17.2667 38.0039 16.9333 38.0039 16.6ZM21.5372 26.4H19.3372C18.6039 26.4 18.0706 25.8 18.0706 25.1333V22.9333C18.0706 22.2 18.6706 21.6667 19.3372 21.6667H21.5372C22.2706 21.6667 22.8039 22.2667 22.8039 22.9333V25.1333C22.8039 25.8 22.2039 26.4 21.5372 26.4ZM21.4706 22.8667L19.2706 22.9333L19.3372 25.1333L21.4706 25.0667V22.8667ZM21.5372 25.0667C21.4706 25.0667 21.4706 25.0667 21.5372 25.0667V25.0667ZM38.0039 24.2C38.0039 23.8 37.7372 23.5333 37.3372 23.5333H25.3372C24.9372 23.5333 24.6706 23.8 24.6706 24.2C24.6706 24.6 24.9372 24.8667 25.3372 24.8667H37.3372C37.7372 24.8667 38.0039 24.5333 38.0039 24.2ZM21.5372 34H19.3372C18.5372 34 18.0039 33.4 18.0039 32.7333V30.4667C18.0039 29.7333 18.6039 29.2 19.2706 29.2H21.4706C22.2039 29.2 22.7372 29.8 22.7372 30.4667V32.7333C22.8039 33.4 22.2039 34 21.5372 34ZM21.4706 30.4667L19.2706 30.5333L19.3372 32.7333L21.4706 32.6667V30.4667ZM21.5372 32.6667C21.4706 32.6667 21.4706 32.6667 21.5372 32.6667V32.6667ZM38.0039 31.8C38.0039 31.4 37.7372 31.1333 37.3372 31.1333H25.3372C24.9372 31.1333 24.6706 31.4 24.6706 31.8C24.6706 32.2 24.9372 32.4667 25.3372 32.4667H37.3372C37.7372 32.4667 38.0039 32.1333 38.0039 31.8Z" fill="white"/>
</svg>
