<svg width="24" height="24" viewBox="0 0 24 24" fill="none" xmlns="http://www.w3.org/2000/svg">
<g clip-path="url(#clip0_575_11238)">
<path d="M18 4.80156C18 4.13884 17.4627 3.60156 16.8 3.60156H1.2C0.537281 3.60156 0 4.13884 0 4.80156C0 5.46428 0.537281 6.00156 1.2 6.00156H16.8C17.4627 6.00156 18 5.46423 18 4.80156ZM1.2 10.8016H22.8C23.4627 10.8016 24 11.3389 24 12.0016C24 12.6643 23.4627 13.2016 22.8 13.2016H1.2C0.537281 13.2016 0 12.6643 0 12.0016C0 11.3389 0.537281 10.8016 1.2 10.8016ZM1.2 18.0016H12C12.6627 18.0016 13.2 18.5388 13.2 19.2016C13.2 19.8642 12.6627 20.4016 12 20.4016H1.2C0.537281 20.4016 0 19.8642 0 19.2016C0 18.5388 0.537281 18.0016 1.2 18.0016Z" fill="white"/>
</g>
<defs>
<clipPath id="clip0_575_11238">
<rect width="24" height="24" fill="white" transform="matrix(-1 0 0 1 24 0)"/>
</clipPath>
</defs>
</svg>
