<svg width="18" height="18" viewBox="0 0 18 18" fill="none" xmlns="http://www.w3.org/2000/svg">
<g clip-path="url(#clip0_575_12577)">
<path d="M3.43317 12.0874C3.32779 12.0874 3.22478 12.0561 3.13717 11.9975C3.04956 11.939 2.98127 11.8558 2.94095 11.7584C2.90062 11.661 2.89007 11.5539 2.91062 11.4506C2.93118 11.3472 2.98191 11.2523 3.05642 11.1777L11.384 2.85019C11.4331 2.79929 11.4919 2.75869 11.5569 2.73076C11.622 2.70284 11.6919 2.68813 11.7626 2.68752C11.8334 2.68691 11.9036 2.70039 11.9691 2.72718C12.0345 2.75398 12.094 2.79355 12.1441 2.84358C12.1941 2.89362 12.2337 2.95311 12.2605 3.01861C12.2873 3.0841 12.3008 3.15427 12.3001 3.22503C12.2995 3.29578 12.2848 3.36571 12.2569 3.43072C12.229 3.49574 12.1884 3.55454 12.1375 3.6037L3.80993 11.9312C3.70601 12.0352 3.56959 12.0874 3.43317 12.0874Z" fill="white"/>
<path d="M2.60949 15.9261C2.52998 15.9261 2.45145 15.9084 2.37968 15.8742C2.30791 15.8399 2.24471 15.7901 2.19471 15.7283C2.14471 15.6664 2.10918 15.5942 2.09072 15.5168C2.07227 15.4395 2.07136 15.359 2.08805 15.2813L2.91138 11.4436C2.92587 11.375 2.95376 11.3099 2.99345 11.2521C3.03314 11.1943 3.08385 11.1449 3.14267 11.1067C3.20149 11.0686 3.26727 11.0424 3.33623 11.0297C3.40519 11.017 3.47598 11.018 3.54454 11.0327C3.6131 11.0474 3.67809 11.0755 3.73577 11.1154C3.79345 11.1553 3.8427 11.2061 3.88069 11.2651C3.91868 11.324 3.94466 11.3899 3.95714 11.4589C3.96963 11.5279 3.96838 11.5987 3.95345 11.6672L3.13013 15.5048C3.1046 15.624 3.03899 15.7308 2.94425 15.8074C2.84951 15.8841 2.73136 15.926 2.60949 15.9261ZM6.4466 15.1027C6.34122 15.1027 6.23821 15.0715 6.1506 15.0129C6.06299 14.9543 5.9947 14.8711 5.95438 14.7738C5.91405 14.6764 5.9035 14.5693 5.92405 14.4659C5.94461 14.3626 5.99534 14.2676 6.06984 14.1931L14.3974 5.86581C14.4465 5.81491 14.5054 5.77432 14.5704 5.74639C14.6354 5.71846 14.7053 5.70376 14.7761 5.70315C14.8468 5.70253 14.917 5.71601 14.9825 5.74281C15.048 5.7696 15.1075 5.80917 15.1575 5.85921C15.2075 5.90924 15.2471 5.96874 15.2739 6.03423C15.3007 6.09972 15.3142 6.16989 15.3136 6.24065C15.313 6.31141 15.2983 6.38133 15.2703 6.44635C15.2424 6.51136 15.2018 6.57017 15.1509 6.61932L6.82362 14.9466C6.77417 14.9962 6.7154 15.0355 6.6507 15.0623C6.586 15.0891 6.51663 15.1029 6.4466 15.1027Z" fill="white"/>
<path d="M2.60707 15.9251C2.47576 15.9246 2.34927 15.8756 2.25185 15.7875C2.15443 15.6995 2.09292 15.5786 2.07912 15.448C2.06533 15.3174 2.1002 15.1863 2.17707 15.0799C2.25394 14.9734 2.3674 14.8991 2.49569 14.8711L6.33333 14.0477C6.47133 14.0186 6.61526 14.0453 6.73357 14.1221C6.85188 14.1989 6.93493 14.3194 6.96451 14.4574C6.9941 14.5953 6.9678 14.7393 6.89139 14.8578C6.81499 14.9764 6.6947 15.0598 6.55688 15.0898L2.71924 15.9131C2.68239 15.9212 2.64478 15.9252 2.60707 15.9251ZM13.2655 8.28155C13.1955 8.28168 13.1262 8.26795 13.0615 8.24116C12.9968 8.21436 12.9381 8.17502 12.8887 8.12541L9.87442 5.1111C9.82352 5.06194 9.78293 5.00314 9.755 4.93812C9.72707 4.8731 9.71237 4.80318 9.71175 4.73242C9.71114 4.66166 9.72462 4.59149 9.75142 4.526C9.77821 4.46051 9.81778 4.40101 9.86782 4.35098C9.91785 4.30094 9.97735 4.26137 10.0428 4.23458C10.1083 4.20778 10.1785 4.1943 10.2493 4.19492C10.32 4.19553 10.3899 4.21023 10.455 4.23816C10.52 4.26609 10.5788 4.30669 10.6279 4.35758L13.6423 7.3719C13.7168 7.44643 13.7675 7.54137 13.788 7.64473C13.8086 7.74808 13.798 7.85521 13.7577 7.95257C13.7174 8.04993 13.6491 8.13315 13.5615 8.19171C13.4739 8.25026 13.3709 8.28153 13.2655 8.28155ZM14.7728 6.77453C14.6673 6.77461 14.5642 6.7434 14.4765 6.68485C14.3888 6.6263 14.3204 6.54304 14.2801 6.44562C14.2397 6.34819 14.2291 6.24098 14.2497 6.13755C14.2703 6.03413 14.3212 5.93914 14.3958 5.86461C14.6923 5.56805 14.8557 5.16652 14.8557 4.73434C14.8557 4.30216 14.6923 3.90063 14.3958 3.60407C14.0989 3.30725 13.6974 3.14391 13.2652 3.14391C12.8331 3.14391 12.4315 3.30725 12.135 3.60407C12.0855 3.65356 12.0267 3.69282 11.962 3.71961C11.8974 3.7464 11.8281 3.76018 11.7581 3.76018C11.6881 3.76018 11.6188 3.7464 11.5541 3.71961C11.4894 3.69282 11.4307 3.65356 11.3812 3.60407C11.3317 3.55458 11.2924 3.49582 11.2656 3.43115C11.2389 3.36648 11.2251 3.29717 11.2251 3.22718C11.2251 3.15718 11.2389 3.08787 11.2656 3.02321C11.2924 2.95854 11.3317 2.89978 11.3812 2.85029C11.8789 2.3523 12.548 2.07812 13.2652 2.07812C13.9822 2.07812 14.6516 2.3523 15.1493 2.85029C15.6473 3.34801 15.9214 4.01706 15.9214 4.73434C15.9214 5.45162 15.6473 6.12066 15.1493 6.61839C15.0999 6.66796 15.0413 6.70728 14.9766 6.73408C14.912 6.76087 14.8427 6.77462 14.7728 6.77453Z" fill="white"/>
</g>
<defs>
<clipPath id="clip0_575_12577">
<rect width="17.0526" height="17.0526" fill="white" transform="translate(0.474609 0.472656)"/>
</clipPath>
</defs>
</svg>
