<svg width="19" height="18" viewBox="0 0 19 18" fill="none" xmlns="http://www.w3.org/2000/svg">
<g id="Frame">
<g id="Group">
<path id="Vector" d="M3.62293 12.2619C3.51169 12.2619 3.40296 12.2289 3.31048 12.1671C3.218 12.1053 3.14592 12.0175 3.10336 11.9147C3.06079 11.8119 3.04965 11.6988 3.07135 11.5897C3.09304 11.4806 3.1466 11.3804 3.22524 11.3018L12.0154 2.51157C12.0673 2.45784 12.1294 2.41499 12.198 2.38551C12.2666 2.35603 12.3405 2.34051 12.4151 2.33986C12.4898 2.33922 12.5639 2.35345 12.633 2.38173C12.7022 2.41001 12.765 2.45178 12.8178 2.5046C12.8706 2.55741 12.9124 2.62021 12.9406 2.68934C12.9689 2.75847 12.9832 2.83254 12.9825 2.90723C12.9819 2.98192 12.9663 3.05573 12.9369 3.12436C12.9074 3.19299 12.8645 3.25505 12.8108 3.30694L4.02061 12.0971C3.91093 12.2068 3.76693 12.2619 3.62293 12.2619Z" fill="#030712"/>
<path id="Vector_2" d="M2.75436 16.3104C2.67042 16.3105 2.58754 16.2918 2.51178 16.2556C2.43602 16.2195 2.3693 16.1669 2.31653 16.1016C2.26375 16.0363 2.22624 15.9601 2.20676 15.8785C2.18729 15.7968 2.18632 15.7119 2.20395 15.6298L3.07301 11.5789C3.08831 11.5065 3.11775 11.4378 3.15964 11.3768C3.20154 11.3158 3.25506 11.2636 3.31715 11.2234C3.37924 11.1831 3.44867 11.1554 3.52147 11.142C3.59426 11.1286 3.66898 11.1297 3.74135 11.1452C3.81372 11.1607 3.88232 11.1904 3.94321 11.2325C4.00409 11.2746 4.05608 11.3283 4.09617 11.3905C4.13627 11.4527 4.1637 11.5222 4.17688 11.595C4.19006 11.6679 4.18873 11.7426 4.17298 11.8149L3.30392 15.8658C3.27697 15.9915 3.20772 16.1043 3.10772 16.1852C3.00771 16.2661 2.88299 16.3103 2.75436 16.3104ZM6.80464 15.4413C6.6934 15.4413 6.58467 15.4083 6.49219 15.3465C6.39971 15.2847 6.32763 15.1969 6.28507 15.0941C6.2425 14.9913 6.23136 14.8782 6.25306 14.7691C6.27475 14.66 6.32831 14.5598 6.40695 14.4812L15.1971 5.69126C15.249 5.63753 15.3111 5.59468 15.3797 5.5652C15.4483 5.53572 15.5222 5.5202 15.5968 5.51955C15.6715 5.5189 15.7456 5.53314 15.8147 5.56142C15.8839 5.5897 15.9467 5.63147 15.9995 5.68428C16.0523 5.7371 16.0941 5.7999 16.1223 5.86903C16.1506 5.93816 16.1649 6.01223 16.1642 6.08692C16.1636 6.16161 16.148 6.23542 16.1186 6.30405C16.0891 6.37267 16.0462 6.43474 15.9925 6.48663L7.20261 15.2765C7.15041 15.3289 7.08837 15.3704 7.02008 15.3987C6.95178 15.427 6.87856 15.4415 6.80464 15.4413Z" fill="#030712"/>
<path id="Vector_3" d="M2.75277 16.3116C2.61417 16.311 2.48065 16.2593 2.37782 16.1663C2.27498 16.0734 2.21006 15.9458 2.1955 15.808C2.18094 15.6701 2.21775 15.5317 2.29889 15.4194C2.38003 15.307 2.49979 15.2285 2.63521 15.199L6.68605 14.3299C6.83172 14.2991 6.98364 14.3274 7.10852 14.4084C7.23341 14.4895 7.32107 14.6167 7.3523 14.7623C7.38353 14.9078 7.35577 15.0599 7.27512 15.185C7.19446 15.3101 7.06749 15.3982 6.92202 15.4299L2.87118 16.2989C2.83228 16.3074 2.79258 16.3117 2.75277 16.3116ZM14.0033 8.24337C13.9295 8.24351 13.8563 8.22902 13.788 8.20073C13.7198 8.17245 13.6578 8.13092 13.6056 8.07856L10.4239 4.89678C10.3701 4.84489 10.3273 4.78282 10.2978 4.7142C10.2683 4.64557 10.2528 4.57176 10.2522 4.49707C10.2515 4.42238 10.2657 4.34831 10.294 4.27918C10.3223 4.21005 10.3641 4.14725 10.4169 4.09443C10.4697 4.04162 10.5325 3.99985 10.6016 3.97157C10.6708 3.94329 10.7448 3.92905 10.8195 3.9297C10.8942 3.93035 10.968 3.94587 11.0367 3.97535C11.1053 4.00483 11.1674 4.04768 11.2192 4.10141L14.401 7.28319C14.4797 7.36185 14.5332 7.46207 14.5549 7.57117C14.5766 7.68027 14.5655 7.79335 14.5229 7.89612C14.4803 7.99889 14.4083 8.08673 14.3158 8.14854C14.2233 8.21035 14.1146 8.24335 14.0033 8.24337ZM15.5944 6.65263C15.4831 6.65271 15.3742 6.61977 15.2816 6.55797C15.189 6.49617 15.1169 6.40828 15.0743 6.30544C15.0317 6.20261 15.0205 6.08944 15.0423 5.98026C15.064 5.87109 15.1176 5.77082 15.1964 5.69216C15.5094 5.37913 15.6818 4.95528 15.6818 4.49909C15.6818 4.04291 15.5094 3.61906 15.1964 3.30603C14.8831 2.99272 14.4592 2.82031 14.0031 2.82031C13.5469 2.82031 13.123 2.99272 12.81 3.30603C12.7577 3.35827 12.6957 3.39972 12.6275 3.42799C12.5592 3.45626 12.486 3.47082 12.4122 3.47082C12.3383 3.47082 12.2651 3.45626 12.1969 3.42799C12.1286 3.39972 12.0666 3.35827 12.0143 3.30603C11.9621 3.25379 11.9207 3.19177 11.8924 3.12351C11.8641 3.05525 11.8495 2.98209 11.8496 2.9082C11.8496 2.83432 11.8641 2.76116 11.8924 2.6929C11.9207 2.62464 11.9621 2.56262 12.0143 2.51037C12.5397 1.98472 13.2459 1.69531 14.0031 1.69531C14.7599 1.69531 15.4664 1.98472 15.9918 2.51037C16.5174 3.03575 16.8068 3.74197 16.8068 4.49909C16.8068 5.25622 16.5174 5.96244 15.9918 6.48781C15.9397 6.54014 15.8777 6.58164 15.8095 6.60993C15.7413 6.63822 15.6682 6.65273 15.5944 6.65263Z" fill="#030712"/>
</g>
</g>
</svg>
