<svg width="18" height="18" viewBox="0 0 18 18" fill="none" xmlns="http://www.w3.org/2000/svg">
<g id="Frame">
<g id="Group">
<path id="Vector" fill-rule="evenodd" clip-rule="evenodd" d="M4.85298 6.72591C4.95845 6.62057 5.10142 6.5614 5.25048 6.5614C5.39954 6.5614 5.54251 6.62057 5.64798 6.72591L9.00048 10.0784L12.353 6.72591C12.4045 6.67064 12.4666 6.62631 12.5356 6.59557C12.6046 6.56483 12.6791 6.5483 12.7546 6.54696C12.8301 6.54563 12.9051 6.55952 12.9752 6.58781C13.0452 6.61611 13.1088 6.65821 13.1623 6.71163C13.2157 6.76504 13.2578 6.82867 13.2861 6.89871C13.3144 6.96875 13.3283 7.04377 13.3269 7.1193C13.3256 7.19483 13.3091 7.26931 13.2783 7.33831C13.2476 7.40731 13.2032 7.46941 13.148 7.52091L9.39798 11.2709C9.29251 11.3762 9.14954 11.4354 9.00048 11.4354C8.85142 11.4354 8.70845 11.3762 8.60298 11.2709L4.85298 7.52091C4.74764 7.41544 4.68848 7.27247 4.68848 7.12341C4.68848 6.97434 4.74764 6.83138 4.85298 6.72591Z" fill="#1F2937"/>
</g>
</g>
</svg>
