<svg width="44" height="44" viewBox="0 0 44 44" fill="none" xmlns="http://www.w3.org/2000/svg">
<g id="Frame">
<rect x="43.5" y="0.5" width="43" height="43" rx="7.5" transform="rotate(90 43.5 0.5)" fill="white"/>
<rect x="43.5" y="0.5" width="43" height="43" rx="7.5" transform="rotate(90 43.5 0.5)" stroke="#030712"/>
<g id="Group">
<path id="Vector" d="M26 22.0006C26.0001 22.0882 25.9829 22.1749 25.9494 22.2558C25.9158 22.3367 25.8667 22.4102 25.8047 22.472L19.138 29.1386C18.8775 29.3991 18.4557 29.3991 18.1954 29.1386C17.935 28.8781 17.9349 28.4563 18.1954 28.1959L24.3907 22.0006L18.1954 15.8053C17.9349 15.5448 17.9349 15.123 18.1954 14.8627C18.4559 14.6024 18.8777 14.6022 19.138 14.8627L25.8047 21.5293C25.8667 21.5911 25.9158 21.6646 25.9494 21.7455C25.9829 21.8264 26.0001 21.9131 26 22.0006Z" fill="#030712"/>
</g>
</g>
</svg>
