<svg width="22" height="22" viewBox="0 0 22 22" fill="none" xmlns="http://www.w3.org/2000/svg">
<g id="Frame">
<g id="Group">
<path id="Vector" d="M10.0833 19.6167C9.71667 19.6167 9.44167 19.525 9.075 19.3417C8.525 18.975 8.25 18.425 8.25 17.7833V12.2833L3.3 7.33333C2.93333 6.96667 2.75 6.50833 2.75 6.05V4.58333C2.75 3.575 3.575 2.75 4.58333 2.75H17.4167C18.425 2.75 19.25 3.575 19.25 4.58333V6.05C19.25 6.50833 19.0667 6.96667 18.7 7.33333L13.75 12.2833V16.8667C13.75 17.6 13.3833 18.15 12.7417 18.5167L10.9083 19.4333C10.6333 19.525 10.3583 19.6167 10.0833 19.6167ZM4.58333 4.58333V6.05L9.53333 11C9.9 11.3667 10.0833 11.825 10.0833 12.2833V17.7833L11.9167 16.8667V12.2833C11.9167 11.825 12.1 11.3667 12.4667 11L17.4167 6.05V4.58333H4.58333Z" fill="#030712"/>
</g>
</g>
</svg>
