<svg width="18" height="18" viewBox="0 0 18 18" fill="none" xmlns="http://www.w3.org/2000/svg">
<g id="Frame" clip-path="url(#clip0_575_13526)">
<g id="Group">
<path id="Vector" d="M11.7365 15.4285H9.1652C9.07141 15.4285 8.99446 15.4586 8.93416 15.519C8.87404 15.5792 8.84381 15.6563 8.84381 15.75V17.6785C8.84381 17.7725 8.8739 17.8492 8.93416 17.9097C8.9945 17.9698 9.07141 17.9999 9.1652 17.9999H11.7365C11.8303 17.9999 11.9074 17.9698 11.9674 17.9097C12.0279 17.8492 12.0576 17.7725 12.0576 17.6785V15.75C12.0576 15.6563 12.0278 15.5792 11.9674 15.519C11.9074 15.4586 11.8303 15.4285 11.7365 15.4285ZM6.91507 14.1428H4.98651V0.321422C4.98651 0.227732 4.95646 0.150578 4.89616 0.0903822C4.83586 0.0302212 4.75892 0 4.66509 0H2.73649C2.6428 0 2.56564 0.0300805 2.50545 0.0903471C2.44532 0.150684 2.4151 0.227732 2.4151 0.321386V14.1428H0.4865C0.339299 14.1428 0.23882 14.2097 0.185202 14.3436C0.13155 14.471 0.155122 14.5881 0.255461 14.6953L3.46971 17.9097C3.54338 17.9697 3.62033 17.9998 3.70075 17.9998C3.78779 17.9998 3.86488 17.9697 3.93179 17.9097L7.13602 14.7054C7.20307 14.6252 7.2365 14.5445 7.2365 14.4646C7.2365 14.3704 7.20627 14.2936 7.14615 14.2329C7.08588 14.1729 7.00894 14.1428 6.91507 14.1428ZM13.6651 10.2858H9.1651C9.0713 10.2858 8.99436 10.3159 8.93406 10.3761C8.8739 10.4363 8.84371 10.5134 8.84371 10.607V12.5358C8.84371 12.6295 8.87379 12.7065 8.93406 12.7667C8.99436 12.8269 9.0713 12.857 9.1651 12.857H13.6651C13.7589 12.857 13.8359 12.8269 13.896 12.7667C13.9563 12.7065 13.9865 12.6295 13.9865 12.5358V10.607C13.9865 10.5134 13.9563 10.4363 13.896 10.3761C13.8359 10.316 13.7589 10.2858 13.6651 10.2858ZM17.7533 0.0903471C17.693 0.0302212 17.6161 0 17.5223 0H9.1652C9.07141 0 8.99446 0.0300805 8.93416 0.0903471C8.87404 0.150684 8.84381 0.227732 8.84381 0.321386V2.24999C8.84381 2.34378 8.8739 2.42072 8.93416 2.48103C8.9945 2.54115 9.07141 2.57137 9.1652 2.57137H17.5223C17.6161 2.57137 17.693 2.54129 17.7533 2.48103C17.8135 2.42072 17.8436 2.34378 17.8436 2.24999V0.321422C17.8437 0.227732 17.8135 0.150543 17.7533 0.0903471ZM15.5937 5.14292H9.1651C9.0713 5.14292 8.99436 5.173 8.93406 5.23334C8.8739 5.29361 8.84371 5.37055 8.84371 5.46438V7.39291C8.84371 7.48674 8.87379 7.56368 8.93406 7.62395C8.99436 7.68414 9.0713 7.71437 9.1651 7.71437H15.5937C15.6874 7.71437 15.7645 7.68429 15.8249 7.62395C15.885 7.56368 15.9151 7.48674 15.9151 7.39291V5.46438C15.9151 5.37055 15.885 5.29347 15.8249 5.23334C15.7643 5.17314 15.6873 5.14292 15.5937 5.14292Z" fill="#030712"/>
</g>
</g>
<defs>
<clipPath id="clip0_575_13526">
<rect width="18" height="18" fill="white"/>
</clipPath>
</defs>
</svg>
