<svg width="23" height="16" viewBox="0 0 23 16" fill="none" xmlns="http://www.w3.org/2000/svg">
<g id="Group">
<path id="Vector" d="M22.373 8.71148L15.373 15.7115C15.1844 15.8936 14.9318 15.9944 14.6696 15.9921C14.4074 15.9899 14.1566 15.8847 13.9712 15.6993C13.7858 15.5139 13.6806 15.2631 13.6783 15.0009C13.6761 14.7387 13.7769 14.4861 13.959 14.2975L19.252 9.00448L1.66602 9.00448C1.4008 9.00448 1.14645 8.89912 0.958909 8.71158C0.771372 8.52405 0.666016 8.26969 0.666016 8.00448C0.666016 7.73926 0.771372 7.48491 0.958909 7.29737C1.14645 7.10983 1.4008 7.00448 1.66602 7.00448L19.252 7.00448L13.959 1.71148C13.8635 1.61923 13.7873 1.50888 13.7349 1.38688C13.6825 1.26488 13.6549 1.13366 13.6538 1.00088C13.6526 0.868097 13.6779 0.736419 13.7282 0.613523C13.7785 0.490626 13.8527 0.378974 13.9466 0.285081C14.0405 0.191188 14.1522 0.116934 14.2751 0.0666533C14.398 0.0163727 14.5296 -0.0089283 14.6624 -0.00777531C14.7952 -0.00662136 14.9264 0.0209656 15.0484 0.0733747C15.1704 0.125784 15.2808 0.201964 15.373 0.297475L22.373 7.29748C22.5605 7.485 22.6658 7.73931 22.6658 8.00448C22.6658 8.26964 22.5605 8.52395 22.373 8.71148Z" fill="#030712"/>
</g>
</svg>
