<svg width="23" height="17" viewBox="0 0 23 17" fill="none" xmlns="http://www.w3.org/2000/svg">
<g id="Group">
<path id="Vector" d="M22.373 9.70757L15.373 16.7076C15.1844 16.8897 14.9318 16.9905 14.6696 16.9882C14.4074 16.986 14.1566 16.8808 13.9712 16.6954C13.7858 16.51 13.6806 16.2592 13.6783 15.997C13.6761 15.7348 13.7769 15.4822 13.959 15.2936L19.252 10.0006L1.66602 10.0006C1.4008 10.0006 1.14645 9.89521 0.958909 9.70768C0.771372 9.52014 0.666016 9.26579 0.666016 9.00057C0.666016 8.73535 0.771372 8.481 0.958909 8.29346C1.14645 8.10593 1.4008 8.00057 1.66602 8.00057L19.252 8.00057L13.959 2.70757C13.8635 2.61532 13.7873 2.50498 13.7349 2.38297C13.6825 2.26097 13.6549 2.12975 13.6538 1.99697C13.6526 1.86419 13.6779 1.73251 13.7282 1.60962C13.7785 1.48672 13.8527 1.37507 13.9466 1.28117C14.0405 1.18728 14.1522 1.11303 14.2751 1.06275C14.398 1.01247 14.5296 0.987165 14.6624 0.988318C14.7952 0.989472 14.9264 1.01706 15.0484 1.06947C15.1704 1.12188 15.2808 1.19806 15.373 1.29357L22.373 8.29357C22.5605 8.4811 22.6658 8.7354 22.6658 9.00057C22.6658 9.26573 22.5605 9.52004 22.373 9.70757Z" fill="#030712"/>
</g>
</svg>
