<svg width="24" height="25" viewBox="0 0 24 25" fill="none" xmlns="http://www.w3.org/2000/svg">
<g clip-path="url(#clip0_575_11585)">
<g clip-path="url(#clip1_575_11585)">
<path d="M22.0718 4.01207C19.4616 1.40258 15.2154 1.40258 12.6059 4.01207L11.9998 4.61782L11.394 4.01207C8.78456 1.40223 4.53796 1.40223 1.92847 4.01207C-0.628033 6.56857 -0.644634 10.6209 1.88997 13.4384C4.20171 16.0073 11.0196 21.5572 11.3089 21.7921C11.4974 21.9458 11.7332 22.0297 11.9765 22.0295L11.9994 22.0291C12.2424 22.0404 12.4872 21.9571 12.69 21.7921C12.9792 21.5572 19.7979 16.0073 22.1103 13.4381C24.6446 10.6209 24.628 6.56857 22.0718 4.01207ZM20.535 12.0207C18.7326 14.023 13.7782 18.1527 11.9994 19.6181C10.2207 18.153 5.26733 14.0237 3.46527 12.021C1.69712 10.0558 1.68052 7.25697 3.42677 5.51072C4.31862 4.61923 5.48985 4.17313 6.66108 4.17313C7.83231 4.17313 9.00354 4.61888 9.89539 5.51072L11.2277 6.84301C11.3819 6.99638 11.581 7.0967 11.796 7.12946C11.9694 7.16706 12.1496 7.16056 12.3199 7.11059C12.4902 7.06061 12.6452 6.96873 12.7708 6.84337L14.1038 5.51072C15.8879 3.72738 18.7898 3.72774 20.5728 5.51072C22.3191 7.25697 22.3025 10.0558 20.535 12.0207Z" fill="#030712"/>
</g>
</g>
<defs>
<clipPath id="clip0_575_11585">
<rect width="24" height="24" fill="white" transform="translate(0 0.0429688)"/>
</clipPath>
<clipPath id="clip1_575_11585">
<rect width="24" height="24" fill="white" transform="translate(0 0.0429688)"/>
</clipPath>
</defs>
</svg>
