<svg width="18" height="19" viewBox="0 0 18 19" fill="none" xmlns="http://www.w3.org/2000/svg">
<g id="Frame">
<g id="Group">
<path id="Layer 2" d="M15.8322 13.2896C16.6044 12.0316 17.0122 10.584 17.0101 9.108C17.0122 7.63191 16.6044 6.18406 15.8322 4.92606L15.8279 4.91904C15.1115 3.75142 14.1077 2.78701 12.9123 2.11798C11.717 1.44896 10.37 1.09766 9.00015 1.09766C7.63029 1.09766 6.28332 1.44896 5.08795 2.11798C3.89258 2.78701 2.88875 3.75142 2.17239 4.91904L2.16807 4.92606C1.39783 6.1849 0.990234 7.63202 0.990234 9.10782C0.990234 10.5836 1.39783 12.0307 2.16807 13.2896L2.17257 13.2968C2.88895 14.4643 3.89279 15.4287 5.08815 16.0977C6.28351 16.7667 7.63046 17.1179 9.00029 17.1179C10.3701 17.1179 11.7171 16.7666 12.9124 16.0976C14.1077 15.4286 15.1116 14.4642 15.8279 13.2966L15.8322 13.2896ZM10.024 15.745C9.87133 15.8923 9.69561 16.0136 9.50379 16.1042C9.34639 16.179 9.17432 16.2178 9.00006 16.2178C8.8258 16.2178 8.65373 16.179 8.49633 16.1042C8.13139 15.9178 7.81899 15.6429 7.58769 15.3047C7.11534 14.622 6.7653 13.8625 6.55323 13.0599C7.36803 13.0097 8.18367 12.9842 9.00015 12.9832C9.81627 12.9832 10.632 13.0088 11.4472 13.0599C11.3298 13.4725 11.1832 13.8763 11.0084 14.2681C10.7783 14.8191 10.444 15.3205 10.024 15.745ZM1.90581 9.55782H5.13663C5.15768 10.4593 5.25542 11.3574 5.42877 12.2423C4.54557 12.3201 3.66465 12.4269 2.78601 12.5627C2.27143 11.6396 1.97064 10.6127 1.90581 9.55782ZM2.78601 5.65308C3.66429 5.78916 4.54551 5.89596 5.42967 5.97348C5.25601 6.85831 5.1581 7.75635 5.13699 8.65782H1.90581C1.97066 7.60299 2.27146 6.57617 2.78601 5.65308ZM7.97631 2.47068C8.12896 2.32336 8.30468 2.202 8.49651 2.1114C8.6539 2.03661 8.82598 1.99781 9.00024 1.99781C9.1745 1.99781 9.34657 2.03661 9.50397 2.1114C9.86891 2.29779 10.1813 2.57269 10.4126 2.91096C10.885 3.59359 11.235 4.35316 11.4471 5.15574C10.6323 5.2059 9.81663 5.23146 9.00015 5.23242C8.18403 5.23242 7.36833 5.20686 6.55305 5.15574C6.67046 4.74311 6.81711 4.33937 6.99189 3.94758C7.22204 3.39657 7.55628 2.89512 7.97631 2.47068ZM16.0945 8.65782H12.8637C12.8426 7.75631 12.7449 6.85823 12.5715 5.9733C13.4547 5.89554 14.3356 5.78874 15.2143 5.6529C15.7289 6.57605 16.0297 7.60293 16.0945 8.65782ZM6.33399 12.1723C6.158 11.3113 6.05861 10.4364 6.03699 9.55782H11.9635C11.9421 10.4364 11.8429 11.3114 11.667 12.1725C10.779 12.1142 9.89007 12.0844 9.00015 12.0832C8.11095 12.0832 7.22223 12.1129 6.33399 12.1723ZM11.6663 6.04332C11.8423 6.90434 11.9417 7.77926 11.9633 8.65782H6.03699C6.05841 7.77921 6.15762 6.90423 6.33345 6.04314C7.22145 6.10146 8.11041 6.13122 9.00033 6.13242C9.88953 6.13242 10.7782 6.10266 11.6665 6.04314L11.6663 6.04332ZM12.8633 9.55782H16.0945C16.0296 10.6126 15.7288 11.6395 15.2143 12.5626C14.3359 12.4265 13.4547 12.3197 12.5706 12.2422C12.7443 11.3573 12.8422 10.4593 12.8633 9.55782ZM14.6746 4.82472C13.9066 4.93548 13.1364 5.0232 12.364 5.08788C12.2252 4.57092 12.0461 4.06562 11.8285 3.5766C11.6298 3.12661 11.3797 2.70108 11.0833 2.3085C12.5157 2.74781 13.7726 3.62847 14.6746 4.82472ZM3.97275 4.08024C4.79444 3.25776 5.80534 2.64941 6.91683 2.3085C6.89991 2.33046 6.88263 2.35134 6.86607 2.37348C6.29475 3.19588 5.87859 4.1158 5.63811 5.08788C4.86555 5.02248 4.09479 4.93476 3.32583 4.82472C3.52412 4.562 3.74027 4.31325 3.97275 4.08024ZM3.32583 13.3909C4.09371 13.2802 4.86393 13.1924 5.63649 13.1278C5.77531 13.6447 5.95435 14.15 6.17199 14.639C6.37073 15.089 6.62078 15.5145 6.91719 15.9071C5.48482 15.4678 4.22787 14.5872 3.32583 13.3909ZM14.0279 14.1354C13.2062 14.9579 12.1953 15.5662 11.0838 15.9071C11.1007 15.8852 11.118 15.8643 11.1346 15.8422C11.7059 15.0198 12.1221 14.0998 12.3625 13.1278C13.1351 13.1932 13.9059 13.2809 14.6748 13.3909C14.4765 13.6536 14.2604 13.9024 14.0279 14.1354Z" fill="#030712"/>
</g>
</g>
</svg>
