<svg width="22" height="22" viewBox="0 0 22 22" fill="none" xmlns="http://www.w3.org/2000/svg">
<g id="Frame">
<g id="Group">
<path id="Layer 2" d="M11.0001 1.375C10.0041 1.37499 9.01784 1.57173 8.09807 1.95393C7.1783 2.33613 6.34309 2.89626 5.64039 3.60214C4.9377 4.30803 4.38137 5.14578 4.00334 6.06727C3.62532 6.98877 3.43305 7.97586 3.43758 8.97188C3.43758 11.9831 7.1707 17.0844 9.3982 19.855C9.59157 20.0934 9.83573 20.2857 10.1129 20.4177C10.39 20.5498 10.6931 20.6183 11.0001 20.6183C11.3071 20.6183 11.6102 20.5498 11.8873 20.4177C12.1644 20.2857 12.4086 20.0934 12.602 19.855C14.8295 17.105 18.5626 11.9831 18.5626 8.97188C18.5671 7.97586 18.3748 6.98877 17.9968 6.06727C17.6188 5.14578 17.0625 4.30803 16.3598 3.60214C15.6571 2.89626 14.8219 2.33613 13.9021 1.95393C12.9823 1.57173 11.9961 1.37499 11.0001 1.375ZM11.5295 18.9956C11.4649 19.0735 11.3841 19.1361 11.2926 19.1792C11.201 19.2222 11.1012 19.2445 11.0001 19.2445C10.899 19.2445 10.7991 19.2222 10.7076 19.1792C10.6161 19.1361 10.5352 19.0735 10.4707 18.9956C6.93008 14.5819 4.81258 10.835 4.81258 8.97188C4.81258 7.33085 5.46447 5.75703 6.62485 4.59665C7.78524 3.43627 9.35905 2.78438 11.0001 2.78438C12.6411 2.78438 14.2149 3.43627 15.3753 4.59665C16.5357 5.75703 17.1876 7.33085 17.1876 8.97188C17.1876 10.835 15.0701 14.5819 11.5295 18.9956ZM11.0001 4.8125C10.1842 4.8125 9.3867 5.05443 8.70835 5.50769C8.03 5.96095 7.50129 6.60519 7.18908 7.35893C6.87686 8.11268 6.79518 8.94208 6.95434 9.74225C7.1135 10.5424 7.50637 11.2774 8.08326 11.8543C8.66015 12.4312 9.39516 12.8241 10.1953 12.9832C10.9955 13.1424 11.8249 13.0607 12.5786 12.7485C13.3324 12.4363 13.9766 11.9076 14.4299 11.2292C14.8832 10.5509 15.1251 9.75335 15.1251 8.9375C15.1251 7.84348 14.6905 6.79427 13.9169 6.02068C13.1433 5.2471 12.0941 4.8125 11.0001 4.8125ZM11.0001 11.6875C10.4562 11.6875 9.9245 11.5262 9.47226 11.224C9.02002 10.9219 8.66755 10.4924 8.45941 9.98988C8.25127 9.48738 8.19681 8.93445 8.30292 8.401C8.40903 7.86755 8.67094 7.37755 9.05553 6.99296C9.44013 6.60836 9.93013 6.34645 10.4636 6.24034C10.997 6.13423 11.55 6.18869 12.0525 6.39683C12.555 6.60497 12.9844 6.95745 13.2866 7.40968C13.5888 7.86192 13.7501 8.3936 13.7501 8.9375C13.7501 9.66685 13.4603 10.3663 12.9446 10.882C12.4289 11.3978 11.7294 11.6875 11.0001 11.6875Z" fill="#4B5563"/>
</g>
</g>
</svg>
