<svg width="24" height="24" viewBox="0 0 24 24" fill="none" xmlns="http://www.w3.org/2000/svg">
<path d="M13.001 21C13.001 21.1313 12.9752 21.2614 12.9249 21.3827C12.8747 21.504 12.801 21.6143 12.7082 21.7072C12.6153 21.8 12.505 21.8737 12.3837 21.9239C12.2624 21.9742 12.1323 22 12.001 22H8.00099C6.67539 21.9984 5.40452 21.4711 4.46718 20.5338C3.52983 19.5965 3.00254 18.3256 3.00098 17V6.99997C3.00254 5.67437 3.52983 4.40351 4.46718 3.46617C5.40452 2.52883 6.67539 2.00155 8.00099 2H12.001C12.2662 2 12.5205 2.10536 12.7081 2.29289C12.8956 2.48042 13.001 2.73477 13.001 2.99998C13.001 3.2652 12.8956 3.51955 12.7081 3.70708C12.5205 3.89461 12.2662 3.99997 12.001 3.99997H8.00099C7.20561 4.00084 6.44305 4.31719 5.88063 4.87961C5.31821 5.44203 5.00186 6.20459 5.00099 6.99997V17C5.00186 17.7954 5.31821 18.5579 5.88063 19.1204C6.44305 19.6828 7.20561 19.9991 8.00099 20H12.001C12.1323 20 12.2624 20.0258 12.3837 20.076C12.505 20.1263 12.6153 20.1999 12.7082 20.2928C12.801 20.3857 12.8747 20.4959 12.9249 20.6173C12.9752 20.7386 13.001 20.8687 13.001 21ZM20.9238 12.3821C20.9991 12.1993 21.0188 11.9983 20.9802 11.8043C20.9417 11.6104 20.8467 11.4322 20.7072 11.2921L16.708 7.29294C16.6152 7.20009 16.5049 7.12644 16.3836 7.07619C16.2623 7.02594 16.1323 7.00007 16.001 7.00007C15.8697 7.00007 15.7397 7.02594 15.6183 7.07619C15.497 7.12644 15.3868 7.20009 15.2939 7.29294C15.2011 7.38579 15.1274 7.49602 15.0772 7.61733C15.0269 7.73864 15.0011 7.86867 15.0011 7.99998C15.0011 8.13129 15.0269 8.26131 15.0772 8.38262C15.1274 8.50394 15.2011 8.61417 15.2939 8.70702L17.5869 11H10.001C9.73575 11 9.4814 11.1054 9.29387 11.2929C9.10633 11.4804 9.00098 11.7348 9.00098 12C9.00098 12.2652 9.10633 12.5195 9.29387 12.7071C9.4814 12.8946 9.73575 13 10.001 13H17.5869L15.2939 15.293C15.2011 15.3858 15.1274 15.496 15.0772 15.6173C15.0269 15.7387 15.0011 15.8687 15.0011 16C15.0011 16.1313 15.0269 16.2613 15.0772 16.3826C15.1274 16.504 15.2011 16.6142 15.2939 16.707C15.3868 16.7999 15.497 16.8735 15.6183 16.9238C15.7397 16.974 15.8697 16.9999 16.001 16.9999C16.1323 16.9999 16.2623 16.974 16.3836 16.9238C16.5049 16.8735 16.6152 16.7999 16.708 16.707L20.7072 12.7078C20.8002 12.6146 20.8738 12.5039 20.9238 12.3821Z" fill="#030712"/>
</svg>
