<svg width="44" height="44" viewBox="0 0 44 44" fill="none" xmlns="http://www.w3.org/2000/svg">
<path d="M37.8107 36.6915H6.19709C6.14586 36.6915 6.09672 36.6712 6.06049 36.635C6.02426 36.5987 6.00391 36.5496 6.00391 36.4984V12.7752C6.00391 12.724 6.02426 12.6748 6.06049 12.6386C6.09672 12.6024 6.14586 12.582 6.19709 12.582H37.8107C37.862 12.582 37.9111 12.6024 37.9473 12.6386C37.9836 12.6748 38.0039 12.724 38.0039 12.7752V36.4984C38.0039 36.5497 37.9835 36.5988 37.9473 36.635C37.911 36.6712 37.8619 36.6915 37.8107 36.6915Z" fill="#F2FBFF"/>
<path d="M7.61523 34.8885V14.3846C7.61523 14.3592 7.62023 14.3341 7.62994 14.3107C7.63965 14.2872 7.65388 14.2659 7.67182 14.248C7.68976 14.2301 7.71105 14.2158 7.73449 14.2061C7.75793 14.1964 7.78305 14.1914 7.80842 14.1914H36.2027C36.2281 14.1914 36.2532 14.1964 36.2767 14.2061C36.3001 14.2158 36.3214 14.2301 36.3393 14.248C36.3573 14.2659 36.3715 14.2872 36.3812 14.3107C36.3909 14.3341 36.3959 14.3592 36.3959 14.3846V34.8885C36.3959 34.9397 36.3756 34.9889 36.3393 35.0251C36.3031 35.0613 36.254 35.0817 36.2027 35.0817H7.80836C7.78299 35.0817 7.75787 35.0767 7.73444 35.067C7.711 35.0573 7.68971 35.043 7.67178 35.0251C7.65384 35.0072 7.63962 34.9859 7.62992 34.9624C7.62022 34.939 7.61523 34.9139 7.61523 34.8885Z" fill="#80D261"/>
<path d="M23.1323 27.7593H24.8386V21.5138H23.1323C23.0901 21.5138 23.0482 21.5221 23.0091 21.5383C22.9701 21.5544 22.9346 21.5781 22.9047 21.608C22.8748 21.6379 22.8511 21.6734 22.8349 21.7125C22.8187 21.7516 22.8104 21.7934 22.8104 21.8357V27.4373C22.8104 27.4796 22.8187 27.5215 22.8349 27.5605C22.8511 27.5996 22.8748 27.6351 22.9047 27.665C22.9346 27.6949 22.9701 27.7186 23.0091 27.7348C23.0482 27.7509 23.0901 27.7593 23.1323 27.7593ZM22.8104 19.5822C22.8104 19.6245 22.8187 19.6664 22.8349 19.7054C22.8511 19.7445 22.8748 19.78 22.9047 19.8099C22.9346 19.8398 22.9701 19.8635 23.0091 19.8797C23.0482 19.8958 23.0901 19.9042 23.1323 19.9041H24.8386V14.3846C24.8386 14.3334 24.8589 14.2842 24.8952 14.248C24.9314 14.2118 24.9805 14.1914 25.0318 14.1914H22.8105L22.8104 19.5822ZM24.8386 34.8885V29.3689H23.1323C23.0901 29.3689 23.0482 29.3772 23.0091 29.3934C22.9701 29.4095 22.9346 29.4333 22.9047 29.4632C22.8748 29.493 22.8511 29.5285 22.8349 29.5676C22.8187 29.6067 22.8104 29.6485 22.8104 29.6908V35.0816H22.746H25.0317C24.9805 35.0816 24.9314 35.0613 24.8951 35.025C24.8589 34.9888 24.8386 34.9397 24.8386 34.8885ZM9.70779 34.8885V14.3846C9.70779 14.3592 9.71279 14.3341 9.7225 14.3107C9.73221 14.2872 9.74644 14.2659 9.76438 14.248C9.78232 14.2301 9.80361 14.2158 9.82705 14.2061C9.85049 14.1964 9.87561 14.1914 9.90098 14.1914H7.80842C7.78305 14.1914 7.75793 14.1964 7.73449 14.2061C7.71105 14.2158 7.68976 14.2301 7.67182 14.248C7.65388 14.2659 7.63965 14.2872 7.62994 14.3107C7.62023 14.3341 7.61523 14.3592 7.61523 14.3846V34.8885C7.61523 34.9397 7.63559 34.9889 7.67182 35.0251C7.70805 35.0613 7.75719 35.0817 7.80842 35.0817H9.90098C9.84974 35.0817 9.80061 35.0613 9.76438 35.0251C9.72815 34.9889 9.70779 34.9397 9.70779 34.8885Z" fill="#68CA44"/>
<path d="M22.8145 19.581C22.8144 19.6233 22.8228 19.6651 22.8389 19.7042C22.8551 19.7433 22.8788 19.7788 22.9087 19.8087C22.9386 19.8386 22.9741 19.8623 23.0132 19.8784C23.0522 19.8946 23.0941 19.9029 23.1364 19.9029H26.5167V17.6579C26.5167 17.6156 26.5084 17.5737 26.4922 17.5347C26.476 17.4956 26.4523 17.4601 26.4224 17.4302C26.3925 17.4003 26.357 17.3766 26.318 17.3604C26.2789 17.3443 26.237 17.3359 26.1948 17.3359H22.8145V19.581Z" fill="white"/>
<path d="M23.1364 19.9029H24.8426V17.3359H22.8145V19.581C22.8145 19.6233 22.8228 19.6651 22.839 19.7042C22.8551 19.7432 22.8789 19.7787 22.9087 19.8086C22.9386 19.8385 22.9741 19.8622 23.0132 19.8784C23.0523 19.8946 23.0941 19.9029 23.1364 19.9029Z" fill="#F2FBFF"/>
<path d="M23.3295 31.6328C23.1543 31.6328 22.9823 31.6466 22.8145 31.6728V35.0836H26.642C26.6438 35.0387 26.6454 34.9939 26.6454 34.9487C26.6454 33.1174 25.1608 31.6328 23.3295 31.6328Z" fill="#01C0FA"/>
<path d="M24.8426 34.8904V31.9984C24.3746 31.7577 23.8558 31.6323 23.3295 31.6328C23.1543 31.6328 22.9823 31.6466 22.8145 31.6728V35.0836H25.0357C25.0103 35.0836 24.9852 35.0786 24.9618 35.0688C24.9383 35.0591 24.9171 35.0449 24.8991 35.027C24.8812 35.009 24.867 34.9877 24.8573 34.9643C24.8476 34.9409 24.8426 34.9157 24.8426 34.8904Z" fill="#08A9F1"/>
<path d="M10.6735 23.8321H7.61523V20.75H10.4804C10.5317 20.75 10.5808 20.7704 10.617 20.8066C10.6532 20.8428 10.6736 20.892 10.6736 20.9432L10.6735 23.8321Z" fill="white"/>
<path d="M7.61523 20.75H9.70779V23.8321H7.61523V20.75Z" fill="#F2FBFF"/>
<path d="M21.2027 23.5091V18.3906C17.7697 18.4292 14.8743 20.7063 13.9082 23.831H20.8808C20.923 23.831 20.9649 23.8227 21.004 23.8065C21.043 23.7903 21.0785 23.7666 21.1084 23.7367C21.1383 23.7068 21.162 23.6713 21.1782 23.6323C21.1944 23.5932 21.2027 23.5513 21.2027 23.5091Z" fill="#01C0FA"/>
<path d="M21.2027 19.8479V18.3906C17.7697 18.4292 14.8743 20.7063 13.9082 23.831H15.7984C16.8813 21.7862 18.8548 20.2865 21.2027 19.8479Z" fill="#08A9F1"/>
<path d="M36.3958 21.5138V19.9041H23.1323C23.09 19.9042 23.0481 19.8958 23.0091 19.8797C22.97 19.8635 22.9345 19.8398 22.9046 19.8099C22.8747 19.78 22.851 19.7445 22.8348 19.7054C22.8186 19.6664 22.8103 19.6245 22.8103 19.5822V14.1914H21.2006V23.5098C21.2007 23.552 21.1923 23.5939 21.1762 23.633C21.16 23.672 21.1363 23.7075 21.1064 23.7374C21.0765 23.7673 21.041 23.791 21.0019 23.8072C20.9629 23.8234 20.921 23.8317 20.8787 23.8317H7.61523V25.4414H20.8788C20.9211 25.4414 20.9629 25.4497 21.002 25.4659C21.041 25.482 21.0765 25.5058 21.1064 25.5357C21.1363 25.5656 21.16 25.601 21.1762 25.6401C21.1924 25.6792 21.2007 25.721 21.2007 25.7633V35.0817H22.8104V29.6909C22.8104 29.6486 22.8187 29.6067 22.8349 29.5677C22.8511 29.5286 22.8748 29.4931 22.9047 29.4632C22.9346 29.4333 22.9701 29.4096 23.0091 29.3934C23.0482 29.3773 23.09 29.3689 23.1323 29.3689H36.3959V27.7593H23.1323C23.09 27.7593 23.0481 27.7509 23.0091 27.7348C22.97 27.7186 22.9345 27.6949 22.9046 27.665C22.8747 27.6351 22.851 27.5996 22.8348 27.5605C22.8186 27.5215 22.8103 27.4796 22.8103 27.4373V21.8357C22.8103 21.7934 22.8186 21.7516 22.8348 21.7125C22.851 21.6734 22.8747 21.6379 22.9046 21.608C22.9345 21.5781 22.97 21.5544 23.0091 21.5383C23.0481 21.5221 23.09 21.5138 23.1323 21.5138H36.3958V21.5138Z" fill="#FAEA5E"/>
<path d="M27.1518 25.9016H24.8983C24.8729 25.9016 24.8478 25.8966 24.8243 25.8869C24.8009 25.8772 24.7796 25.8629 24.7617 25.845C24.7437 25.8271 24.7295 25.8058 24.7198 25.7823C24.7101 25.7589 24.7051 25.7338 24.7051 25.7084V23.4549C24.7051 23.4295 24.7101 23.4044 24.7198 23.381C24.7295 23.3575 24.7437 23.3362 24.7617 23.3183C24.7796 23.3004 24.8009 23.2861 24.8243 23.2764C24.8478 23.2667 24.8729 23.2617 24.8983 23.2617H27.1518C27.1771 23.2617 27.2023 23.2667 27.2257 23.2764C27.2491 23.2861 27.2704 23.3004 27.2884 23.3183C27.3063 23.3362 27.3205 23.3575 27.3302 23.381C27.34 23.4044 27.3449 23.4295 27.3449 23.4549V25.7084C27.3449 25.7596 27.3246 25.8088 27.2884 25.845C27.2521 25.8812 27.203 25.9016 27.1518 25.9016Z" fill="white"/>
<path d="M25.9928 25.7084V23.4549C25.9928 23.4295 25.9978 23.4044 26.0075 23.381C26.0172 23.3575 26.0315 23.3362 26.0494 23.3183C26.0673 23.3004 26.0886 23.2861 26.1121 23.2764C26.1355 23.2667 26.1606 23.2617 26.186 23.2617H24.8983C24.8729 23.2617 24.8478 23.2667 24.8243 23.2764C24.8009 23.2861 24.7796 23.3004 24.7617 23.3183C24.7437 23.3362 24.7295 23.3575 24.7198 23.381C24.7101 23.4044 24.7051 23.4295 24.7051 23.4549V25.7084C24.7051 25.7338 24.7101 25.7589 24.7198 25.7823C24.7295 25.8058 24.7437 25.8271 24.7617 25.845C24.7796 25.8629 24.8009 25.8772 24.8243 25.8869C24.8478 25.8966 24.8729 25.9016 24.8983 25.9016H26.186C26.1348 25.9016 26.0856 25.8812 26.0494 25.845C26.0132 25.8088 25.9928 25.7596 25.9928 25.7084Z" fill="#F2FBFF"/>
<path d="M34.6889 18.2375H32.4354C32.3841 18.2375 32.335 18.2172 32.2988 18.1809C32.2625 18.1447 32.2422 18.0956 32.2422 18.0443V15.7908C32.2422 15.7396 32.2625 15.6905 32.2988 15.6542C32.335 15.618 32.3841 15.5977 32.4354 15.5977H34.6889C34.7401 15.5977 34.7892 15.618 34.8255 15.6542C34.8617 15.6905 34.8821 15.7396 34.8821 15.7908V18.0443C34.8821 18.0956 34.8617 18.1447 34.8255 18.1809C34.7892 18.2172 34.7401 18.2375 34.6889 18.2375Z" fill="white"/>
<path d="M33.5299 18.0443V15.7908C33.5299 15.7396 33.5503 15.6905 33.5865 15.6542C33.6227 15.618 33.6719 15.5977 33.7231 15.5977H32.4354C32.3841 15.5977 32.335 15.618 32.2988 15.6542C32.2625 15.6905 32.2422 15.7396 32.2422 15.7908V18.0443C32.2422 18.0956 32.2625 18.1447 32.2988 18.1809C32.335 18.2172 32.3841 18.2375 32.4354 18.2375H33.7231C33.6719 18.2375 33.6228 18.2172 33.5865 18.1809C33.5503 18.1447 33.53 18.0956 33.5299 18.0443Z" fill="#F2FBFF"/>
<path d="M32.015 32.0724L34.0249 28.5912C34.9925 26.9152 33.783 24.8203 31.8478 24.8203C29.9125 24.8203 28.703 26.9152 29.6706 28.5912L31.6805 32.0724C31.7548 32.2012 31.9406 32.2012 32.015 32.0724Z" fill="#FD4755"/>
<path d="M31.5253 28.2744C31.1874 28.1446 30.9472 27.8179 30.9472 27.4343C30.9472 27.0831 31.1488 26.7796 31.4421 26.6311C31.6496 25.9288 32.1583 25.3267 32.8524 25.0257C32.5496 24.8944 32.2115 24.8203 31.8478 24.8203C29.9125 24.8203 28.703 26.9152 29.6706 28.5912L31.6805 32.0724C31.7548 32.2012 31.9407 32.2012 32.0151 32.0724L32.8524 30.6221L31.6799 28.5912C31.6212 28.4893 31.5696 28.3834 31.5253 28.2744Z" fill="#FB2B3A"/>
<path d="M31.8439 28.3363C32.3413 28.3363 32.7445 27.9331 32.7445 27.4357C32.7445 26.9384 32.3413 26.5352 31.8439 26.5352C31.3466 26.5352 30.9434 26.9384 30.9434 27.4357C30.9434 27.9331 31.3466 28.3363 31.8439 28.3363Z" fill="white"/>
<path d="M31.5734 27.4357C31.5734 27.0493 31.8171 26.7207 32.1589 26.5929C32.0582 26.5549 31.9515 26.5353 31.8439 26.5352C31.3465 26.5352 30.9434 26.9383 30.9434 27.4357C30.9434 27.9331 31.3465 28.3363 31.8439 28.3363C31.9549 28.3363 32.0607 28.3152 32.1589 28.2785C31.8171 28.1506 31.5734 27.822 31.5734 27.4357Z" fill="#F2FBFF"/>
<path d="M12.2224 29.4946L14.3027 25.8914C15.3043 24.1567 14.0524 21.9883 12.0493 21.9883C10.0462 21.9883 8.7943 24.1567 9.79586 25.8914L11.8762 29.4946C11.9531 29.6279 12.1455 29.6279 12.2224 29.4946Z" fill="#FD4755"/>
<path d="M11.6175 25.5195C11.3203 25.3638 11.1172 25.0527 11.1172 24.6939C11.1172 24.3693 11.2833 24.0838 11.5349 23.9169C11.7428 23.1539 12.2924 22.4978 13.049 22.1849C12.7458 22.0595 12.41 21.9883 12.0493 21.9883C10.0462 21.9883 8.7943 24.1567 9.79586 25.8913L11.8762 29.4945C11.9531 29.6278 12.1455 29.6278 12.2225 29.4945L13.049 28.0629L11.7952 25.8913C11.7266 25.7721 11.6672 25.6478 11.6175 25.5195Z" fill="#FB2B3A"/>
<path d="M12.0591 25.626C12.5739 25.626 12.9912 25.2086 12.9912 24.6938C12.9912 24.179 12.5739 23.7617 12.0591 23.7617C11.5443 23.7617 11.127 24.179 11.127 24.6938C11.127 25.2086 11.5443 25.626 12.0591 25.626Z" fill="white"/>
<path d="M11.7584 24.6938C11.7584 24.29 12.0156 23.9472 12.3748 23.8177C12.2736 23.7809 12.1667 23.7619 12.059 23.7617C11.5443 23.7617 11.127 24.179 11.127 24.6938C11.127 25.2087 11.5443 25.626 12.059 25.626C12.1667 25.6257 12.2736 25.6068 12.3748 25.57C12.0156 25.4403 11.7584 25.0976 11.7584 24.6938Z" fill="#F2FBFF"/>
<path d="M16.9762 33.1126C18.1852 33.1126 19.1654 32.1325 19.1654 30.9235C19.1654 29.7145 18.1852 28.7344 16.9762 28.7344C15.7672 28.7344 14.7871 29.7145 14.7871 30.9235C14.7871 32.1325 15.7672 33.1126 16.9762 33.1126Z" fill="#01C0FA"/>
<path d="M16.7187 30.9235C16.7187 30.0612 17.2175 29.3157 17.942 28.9588C17.6416 28.8108 17.3111 28.734 16.9762 28.7344C15.7672 28.7344 14.7871 29.7145 14.7871 30.9235C14.7871 32.1325 15.7672 33.1126 16.9762 33.1126C17.3111 33.113 17.6416 33.0362 17.942 32.8882C17.2175 32.5313 16.7187 31.7858 16.7187 30.9235Z" fill="#08A9F1"/>
<path d="M7.61523 31.2188V34.8887C7.61523 34.94 7.63559 34.9891 7.67182 35.0253C7.70805 35.0616 7.75719 35.0819 7.80842 35.0819H11.4784C11.4784 32.9484 9.74879 31.2188 7.61523 31.2188Z" fill="#01C0FA"/>
<path d="M7.80842 35.0819H9.90098C9.84974 35.0819 9.80061 35.0616 9.76438 35.0254C9.72815 34.9891 9.70779 34.94 9.70779 34.8887V31.8353C9.08446 31.432 8.35766 31.2179 7.61523 31.2188V34.8887C7.61525 34.94 7.63561 34.9891 7.67184 35.0253C7.70806 35.0616 7.75719 35.0819 7.80842 35.0819Z" fill="#08A9F1"/>
<path d="M36.1988 35.5504H7.80445C7.43952 35.5504 7.14258 35.2534 7.14258 34.8885V14.3845C7.14258 14.0196 7.43952 13.7227 7.80445 13.7227H36.1988C36.5638 13.7227 36.8607 14.0196 36.8607 14.3845V34.8884C36.8606 35.2534 36.5637 35.5504 36.1988 35.5504ZM8.08008 34.6129H35.9231V14.6602H8.08008V34.6129Z" fill="#99E6FC"/>
<path d="M15.2111 18.0363L18.2231 12.8192C19.6362 10.3718 17.8699 7.3125 15.0438 7.3125C12.2178 7.3125 10.4515 10.3718 11.8645 12.8192L14.8766 18.0363C14.9508 18.165 15.1367 18.165 15.2111 18.0363Z" fill="#FD4755"/>
<path d="M14.3798 12.4459C13.8993 12.203 13.5696 11.7051 13.5696 11.1299C13.5696 10.6119 13.837 10.1566 14.2411 9.89362C14.5675 8.85712 15.3449 7.97794 16.3959 7.56487C15.9837 7.40287 15.5295 7.3125 15.0438 7.3125C12.2178 7.3125 10.4515 10.3718 11.8645 12.8192L14.8766 18.0363C14.951 18.165 15.1368 18.165 15.2111 18.0363L16.3959 15.9841L14.5687 12.8192C14.499 12.6983 14.4359 12.5737 14.3798 12.4459Z" fill="#FB2B3A"/>
<path d="M15.0426 12.6047C15.8568 12.6047 16.5169 11.9447 16.5169 11.1305C16.5169 10.3163 15.8568 9.65625 15.0426 9.65625C14.2284 9.65625 13.5684 10.3163 13.5684 11.1305C13.5684 11.9447 14.2284 12.6047 15.0426 12.6047Z" fill="white"/>
<path d="M14.9205 11.1305C14.9205 10.5601 15.2447 10.0657 15.7187 9.82056C15.5097 9.71239 15.2779 9.65604 15.0426 9.65625C14.2284 9.65625 13.5684 10.3163 13.5684 11.1305C13.5684 11.9447 14.2284 12.6047 15.0426 12.6047C15.2864 12.6047 15.5161 12.5452 15.7187 12.4405C15.2447 12.1953 14.9205 11.7009 14.9205 11.1305Z" fill="#F2FBFF"/>
</svg>
