<svg width="24" height="24" viewBox="0 0 24 24" fill="none" xmlns="http://www.w3.org/2000/svg">
<g clip-path="url(#clip0_575_11580)">
<g clip-path="url(#clip1_575_11580)">
<path d="M3.49337 22.5656H1.79281L2.99532 21.3631C3.64369 20.7148 4.04858 19.8715 4.15744 18.9566C2.46551 17.8463 1.2283 16.3855 0.566021 14.7103C-0.0957876 13.0363 -0.178954 11.1935 0.325539 9.38112C0.930854 7.20645 2.3506 5.22431 4.32316 3.79977C6.4667 2.25183 9.13516 1.43359 12.0401 1.43359C15.6996 1.43359 18.7841 2.48498 20.9601 4.47403C22.9204 6.26598 24 8.68306 24 11.2801C24 12.5418 23.7431 13.7695 23.2364 14.929C22.7121 16.1289 21.9444 17.1973 20.9545 18.1044C18.7756 20.1013 15.693 21.1568 12.0401 21.1568C10.684 21.1568 9.26895 20.9758 8.00558 20.6436C6.80974 21.8704 5.18929 22.5656 3.49337 22.5656ZM12.0401 2.8424C6.21523 2.8424 2.64105 6.31618 1.68273 9.75892C0.777154 13.0123 2.11209 16.0865 5.25372 17.9823L5.60475 18.1942L5.59395 18.604C5.57253 19.4152 5.37915 20.1965 5.03301 20.9028C5.8759 20.6176 6.64073 20.1006 7.23966 19.393L7.53748 19.0411L7.97914 19.1732C9.21856 19.5439 10.6608 19.748 12.0401 19.748C19.2894 19.748 22.5912 15.3585 22.5912 11.2801C22.5912 9.08349 21.6744 7.03565 20.0095 5.51386C18.0976 3.7662 15.3418 2.8424 12.0401 2.8424Z" fill="#030712"/>
</g>
</g>
<defs>
<clipPath id="clip0_575_11580">
<rect width="24" height="24" fill="white"/>
</clipPath>
<clipPath id="clip1_575_11580">
<rect width="24" height="24" fill="white"/>
</clipPath>
</defs>
</svg>
