<svg width="16" height="16" viewBox="0 0 16 16" fill="none" xmlns="http://www.w3.org/2000/svg">
<g clip-path="url(#clip0_819_3785)">
<path d="M8.25 1.23047C4.37297 1.23047 1.21875 3.90656 1.21875 7.19625C1.21875 8.59781 1.79812 9.94312 2.8575 11.017L1.72172 14.1445C1.68998 14.2318 1.68485 14.3264 1.70699 14.4166C1.72912 14.5067 1.77752 14.5883 1.84605 14.6509C1.91459 14.7135 2.00016 14.7543 2.09194 14.7683C2.18371 14.7822 2.27755 14.7685 2.36156 14.7291L6.2475 12.9131C6.90141 13.0781 7.57406 13.1616 8.25 13.1616C12.127 13.1616 15.2812 10.4855 15.2812 7.19578C15.2812 3.90609 12.127 1.23047 8.25 1.23047ZM4.84969 8.04797C4.37953 8.04797 3.9975 7.66594 3.9975 7.19625C3.9975 6.72656 4.37953 6.34453 4.84969 6.34453C5.31938 6.34453 5.70141 6.72656 5.70141 7.19625C5.70141 7.66594 5.31938 8.04797 4.84969 8.04797ZM8.25 8.04797C7.78031 8.04797 7.39828 7.66594 7.39828 7.19625C7.39828 6.72656 7.78031 6.34453 8.25 6.34453C8.71969 6.34453 9.10172 6.72656 9.10172 7.19625C9.10172 7.66594 8.71969 8.04797 8.25 8.04797ZM11.6503 8.04797C11.1806 8.04797 10.7986 7.66594 10.7986 7.19625C10.7986 6.72656 11.1806 6.34453 11.6503 6.34453C12.1205 6.34453 12.5025 6.72656 12.5025 7.19625C12.5025 7.66594 12.1205 8.04797 11.6503 8.04797Z" fill="white"/>
</g>
<defs>
<clipPath id="clip0_819_3785">
<rect width="15" height="15" fill="white" transform="translate(0.75 0.5)"/>
</clipPath>
</defs>
</svg>
