<svg width="24" height="25" viewBox="0 0 24 25" fill="none" xmlns="http://www.w3.org/2000/svg">
<g id="Frame">
<g id="Group">
<path id="Vector" d="M5.625 18.6055H3C2.5526 18.605 2.12367 18.427 1.80731 18.1107C1.49095 17.7943 1.313 17.3654 1.3125 16.918V4.91797C1.3125 3.98759 2.06963 3.23047 3 3.23047H5.625C5.77418 3.23047 5.91726 3.28973 6.02275 3.39522C6.12824 3.50071 6.1875 3.64378 6.1875 3.79297C6.1875 3.94215 6.12824 4.08523 6.02275 4.19072C5.91726 4.29621 5.77418 4.35547 5.625 4.35547H3C2.68988 4.35547 2.4375 4.60784 2.4375 4.91797V16.918C2.4375 17.2281 2.68988 17.4805 3 17.4805H5.625C5.77418 17.4805 5.91726 17.5397 6.02275 17.6452C6.12824 17.7507 6.1875 17.8938 6.1875 18.043C6.1875 18.1922 6.12824 18.3352 6.02275 18.4407C5.91726 18.5462 5.77418 18.6055 5.625 18.6055ZM19.875 14.3305C19.7258 14.3305 19.5827 14.2712 19.4773 14.1657C19.3718 14.0602 19.3125 13.9172 19.3125 13.768V4.91797C19.3125 4.60784 19.0601 4.35547 18.75 4.35547H16.125C15.9758 4.35547 15.8327 4.29621 15.7273 4.19072C15.6218 4.08523 15.5625 3.94215 15.5625 3.79297C15.5625 3.64378 15.6218 3.50071 15.7273 3.39522C15.8327 3.28973 15.9758 3.23047 16.125 3.23047H18.75C19.6804 3.23047 20.4375 3.98759 20.4375 4.91797V13.768C20.4375 13.9172 20.3782 14.0602 20.2727 14.1657C20.1673 14.2712 20.0242 14.3305 19.875 14.3305Z" fill="#030712"/>
<path id="Vector_2" d="M11.25 20.4805H6.75C6.3026 20.48 5.87367 20.302 5.55731 19.9857C5.24095 19.6693 5.063 19.2404 5.0625 18.793V3.04297C5.0625 2.11259 5.81963 1.35547 6.75 1.35547H15C15.9304 1.35547 16.6875 2.11259 16.6875 3.04297V13.4267C16.6875 13.5759 16.6282 13.719 16.5227 13.8245C16.4173 13.93 16.2742 13.9892 16.125 13.9892C15.9758 13.9892 15.8327 13.93 15.7273 13.8245C15.6218 13.719 15.5625 13.5759 15.5625 13.4267V3.04297C15.5625 2.73284 15.3101 2.48047 15 2.48047H6.75C6.43988 2.48047 6.1875 2.73284 6.1875 3.04297V18.793C6.1875 19.1031 6.43988 19.3555 6.75 19.3555H11.25C11.3992 19.3555 11.5423 19.4147 11.6477 19.5202C11.7532 19.6257 11.8125 19.7688 11.8125 19.918C11.8125 20.0672 11.7532 20.2102 11.6477 20.3157C11.5423 20.4212 11.3992 20.4805 11.25 20.4805Z" fill="#030712"/>
<path id="Vector_3" d="M13.5 8.85584H8.25C8.10082 8.85584 7.95774 8.79658 7.85225 8.69109C7.74676 8.5856 7.6875 8.44253 7.6875 8.29334V4.54334C7.6875 4.43888 7.71659 4.33648 7.77151 4.24762C7.82643 4.15876 7.90501 4.08695 7.99844 4.04023C8.09188 3.99351 8.19647 3.97374 8.30052 3.98312C8.40456 3.9925 8.50393 4.03067 8.5875 4.09334L9.69712 4.92584L10.4767 4.14584C10.529 4.09355 10.591 4.05205 10.6592 4.02373C10.7275 3.99541 10.8006 3.98081 10.8745 3.98078C10.9484 3.98074 11.0216 3.99527 11.0899 4.02353C11.1582 4.05179 11.2202 4.09322 11.2725 4.14547L12.0525 4.92547L13.1625 4.09297C13.2461 4.03029 13.3454 3.99212 13.4495 3.98274C13.5535 3.97336 13.6581 3.99314 13.7516 4.03985C13.845 4.08657 13.9236 4.15838 13.9785 4.24725C14.0334 4.33611 14.0625 4.43851 14.0625 4.54297V8.29334C14.0625 8.44253 14.0032 8.5856 13.8977 8.69109C13.7923 8.79658 13.6492 8.85584 13.5 8.85584ZM8.8125 7.73084H12.9375V5.66834L12.3375 6.11834C12.2292 6.19949 12.0952 6.23885 11.9602 6.2292C11.8252 6.21956 11.6982 6.16156 11.6025 6.06584L10.875 5.33909L10.1479 6.06659C10.0522 6.16231 9.92517 6.22031 9.79017 6.22995C9.65516 6.2396 9.52121 6.20024 9.41287 6.11909L8.8125 5.66834V7.73084ZM10.875 17.0451C10.2926 17.0451 9.762 16.7023 9.55463 16.1916C9.52537 16.1229 9.51008 16.0491 9.50966 15.9744C9.50923 15.8998 9.52367 15.8258 9.55213 15.7567C9.58059 15.6877 9.62251 15.6251 9.67544 15.5724C9.72838 15.5197 9.79126 15.4782 9.86043 15.4501C9.9296 15.422 10.0037 15.4079 10.0783 15.4087C10.153 15.4095 10.2267 15.4252 10.2953 15.4548C10.3638 15.4844 10.4258 15.5274 10.4775 15.5812C10.5293 15.635 10.5698 15.6986 10.5967 15.7682C10.6327 15.8563 10.7497 15.9201 10.875 15.9201C11.1037 15.9201 11.2969 15.7723 11.2969 15.5976V15.5537C11.2969 15.3748 10.9117 15.2466 10.779 15.2226C10.2424 15.1333 9.32812 14.7283 9.32812 13.7826V13.7395C9.32812 12.9411 10.0219 12.2916 10.875 12.2916C11.4574 12.2916 11.988 12.6343 12.1954 13.1451C12.2246 13.2138 12.2399 13.2876 12.2403 13.3623C12.2408 13.4369 12.2263 13.5109 12.1979 13.5799C12.1694 13.649 12.1275 13.7116 12.0746 13.7643C12.0216 13.8169 11.9587 13.8585 11.8896 13.8866C11.8204 13.9147 11.7463 13.9288 11.6717 13.928C11.597 13.9271 11.5233 13.9115 11.4547 13.8819C11.3862 13.8522 11.3242 13.8093 11.2725 13.7555C11.2207 13.7017 11.1802 13.6381 11.1533 13.5685C11.1173 13.4803 11.0003 13.4166 10.875 13.4166C10.6463 13.4166 10.4531 13.5643 10.4531 13.7391V13.783C10.4531 13.9618 10.8383 14.0901 10.971 14.1141C11.5076 14.2033 12.4219 14.6083 12.4219 15.5541V15.5972C12.4219 16.3956 11.7281 17.0451 10.875 17.0451Z" fill="#030712"/>
<path id="Vector_4" d="M10.875 13.4162C10.7258 13.4162 10.5827 13.357 10.4773 13.2515C10.3718 13.146 10.3125 13.0029 10.3125 12.8537V12.043C10.3125 11.8938 10.3718 11.7507 10.4773 11.6452C10.5827 11.5397 10.7258 11.4805 10.875 11.4805C11.0242 11.4805 11.1673 11.5397 11.2727 11.6452C11.3782 11.7507 11.4375 11.8938 11.4375 12.043V12.8537C11.4375 13.0029 11.3782 13.146 11.2727 13.2515C11.1673 13.357 11.0242 13.4162 10.875 13.4162ZM10.875 17.8555C10.7258 17.8555 10.5827 17.7962 10.4773 17.6907C10.3718 17.5852 10.3125 17.4422 10.3125 17.293V16.4822C10.3125 16.333 10.3718 16.19 10.4773 16.0845C10.5827 15.979 10.7258 15.9197 10.875 15.9197C11.0242 15.9197 11.1673 15.979 11.2727 16.0845C11.3782 16.19 11.4375 16.333 11.4375 16.4822V17.293C11.4375 17.4422 11.3782 17.5852 11.2727 17.6907C11.1673 17.7962 11.0242 17.8555 10.875 17.8555ZM17.625 22.7305C14.8335 22.7305 12.5625 20.4595 12.5625 17.668C12.5625 14.8765 14.8335 12.6055 17.625 12.6055C20.4165 12.6055 22.6875 14.8765 22.6875 17.668C22.6875 20.4595 20.4165 22.7305 17.625 22.7305ZM17.625 13.7305C15.4538 13.7305 13.6875 15.4967 13.6875 17.668C13.6875 19.8392 15.4538 21.6055 17.625 21.6055C19.7963 21.6055 21.5625 19.8392 21.5625 17.668C21.5625 15.4967 19.7963 13.7305 17.625 13.7305Z" fill="#030712"/>
<path id="Vector_5" d="M16.9691 19.73C16.82 19.73 16.677 19.6708 16.5716 19.5654L14.8841 17.8779C14.8294 17.8262 14.7857 17.7641 14.7555 17.6953C14.7253 17.6265 14.7091 17.5523 14.7081 17.4771C14.707 17.4019 14.721 17.3273 14.7493 17.2576C14.7776 17.1879 14.8195 17.1246 14.8727 17.0715C14.9258 17.0183 14.9891 16.9763 15.0587 16.948C15.1284 16.9197 15.203 16.9056 15.2782 16.9067C15.3534 16.9077 15.4276 16.9238 15.4964 16.954C15.5653 16.9842 15.6274 17.0279 15.6791 17.0825L16.9691 18.3721L19.5716 15.7696C19.6232 15.715 19.6853 15.6713 19.7542 15.6411C19.8231 15.6109 19.8973 15.5948 19.9724 15.5938C20.0476 15.5928 20.1222 15.6068 20.1919 15.6351C20.2616 15.6634 20.3248 15.7054 20.378 15.7586C20.4311 15.8118 20.4731 15.8751 20.5013 15.9447C20.5296 16.0144 20.5436 16.089 20.5426 16.1642C20.5415 16.2394 20.5254 16.3136 20.4952 16.3824C20.4649 16.4513 20.4212 16.5133 20.3666 16.565L17.3666 19.5654C17.2612 19.6709 17.1182 19.7299 16.9691 19.73Z" fill="#030712"/>
</g>
</g>
</svg>
