<svg width="24" height="25" viewBox="0 0 24 25" fill="none" xmlns="http://www.w3.org/2000/svg">
<g id="Frame" clip-path="url(#clip0_575_11677)">
<g id="Group">
<path id="Vector" d="M22.9088 12.1905V8.81735C22.9088 7.67355 22.0216 6.74334 20.9006 6.65314L17.7681 1.18164C17.4778 0.675598 17.009 0.313916 16.4481 0.163731C15.8899 0.0145689 15.3061 0.0929086 14.8064 0.383716L4.06783 6.63555H2.1818C0.978529 6.63555 0 7.61402 0 8.81735V21.908C0 23.1113 0.978478 24.0898 2.1818 24.0898H20.727C21.9302 24.0898 22.9088 23.1114 22.9088 21.908V18.5349C23.5423 18.309 23.9996 17.7092 23.9996 16.999V13.7264C23.9996 13.0162 23.5423 12.4164 22.9088 12.1905ZM19.633 6.63555H14.8789L18.4445 4.55965L19.633 6.63555ZM17.9025 3.61298L12.7108 6.63555H10.5573L17.3641 2.67254L17.9025 3.61298ZM15.3556 1.3265C15.6022 1.18215 15.8904 1.14379 16.1658 1.21733C16.4444 1.29188 16.6766 1.47193 16.821 1.72388L16.8221 1.72587L8.38935 6.63555H6.23598L15.3556 1.3265ZM21.8178 21.908C21.8178 22.5094 21.3283 22.9989 20.727 22.9989H2.1818C1.58045 22.9989 1.09093 22.5094 1.09093 21.908V8.81735C1.09093 8.21599 1.58045 7.72647 2.1818 7.72647H20.727C21.3283 7.72647 21.8178 8.21599 21.8178 8.81735V12.09H18.5452C16.7405 12.09 15.2725 13.558 15.2725 15.3627C15.2725 17.1674 16.7405 18.6354 18.5452 18.6354H21.8178V21.908ZM22.9088 16.999C22.9088 17.3 22.6643 17.5445 22.3633 17.5445H18.5452C17.3419 17.5445 16.3634 16.566 16.3634 15.3627C16.3634 14.1594 17.3418 13.1809 18.5452 13.1809H22.3633C22.6642 13.1809 22.9088 13.4254 22.9088 13.7264V16.999Z" fill="#030712"/>
<path id="Vector_2" d="M18.545 14.2734C17.9436 14.2734 17.4541 14.763 17.4541 15.3643C17.4541 15.9657 17.9436 16.4552 18.545 16.4552C19.1463 16.4552 19.6358 15.9657 19.6358 15.3643C19.6359 14.763 19.1464 14.2734 18.545 14.2734Z" fill="#030712"/>
</g>
</g>
<defs>
<clipPath id="clip0_575_11677">
<rect width="24" height="24" fill="white" transform="translate(0 0.0898438)"/>
</clipPath>
</defs>
</svg>
