<svg width="24" height="24" viewBox="0 0 24 24" fill="none" xmlns="http://www.w3.org/2000/svg">
<path d="M9.86025 11.5609C11.4485 11.5609 12.8236 10.9913 13.9475 9.86733C15.0711 8.74364 15.6409 7.3687 15.6409 5.7803C15.6409 4.19236 15.0712 2.81728 13.9473 1.69317C12.8234 0.569625 11.4483 0 9.86025 0C8.2718 0 6.89681 0.569625 5.77312 1.69336C4.64944 2.81709 4.07958 4.19222 4.07958 5.7803C4.07958 7.3687 4.64939 8.74383 5.77317 9.86756C6.89723 10.9911 8.27236 11.5609 9.8602 11.5609H9.86025ZM6.76777 2.68781C7.62998 1.82555 8.6415 1.40644 9.86025 1.40644C11.0788 1.40644 12.0905 1.82555 12.9529 2.68781C13.8151 3.55022 14.2344 4.56187 14.2344 5.78025C14.2344 6.999 13.8151 8.01052 12.9529 8.87292C12.0905 9.73538 11.0788 10.1545 9.86025 10.1545C8.64183 10.1545 7.63041 9.73519 6.76777 8.87292C5.90531 8.0107 5.48602 6.99905 5.48602 5.7803C5.48602 4.56188 5.90531 3.55022 6.76777 2.68781ZM19.9748 18.4548C19.9424 17.9872 19.8768 17.477 19.7803 16.9384C19.6829 16.3956 19.5575 15.8826 19.4073 15.4136C19.2521 14.9289 19.0413 14.4503 18.7804 13.9916C18.5099 13.5156 18.1921 13.101 17.8354 12.7599C17.4624 12.403 17.0057 12.1161 16.4776 11.9068C15.9514 11.6986 15.3682 11.5932 14.7444 11.5932C14.4994 11.5932 14.2625 11.6937 13.8049 11.9916C13.4796 12.2034 13.1534 12.4137 12.8262 12.6225C12.5118 12.8229 12.0859 13.0106 11.5598 13.1805C11.0466 13.3466 10.5255 13.4308 10.0109 13.4308C9.49678 13.4308 8.97562 13.3466 8.46202 13.1805C7.93655 13.0107 7.51045 12.8231 7.19658 12.6227C6.83236 12.39 6.50283 12.1776 6.21698 11.9914C5.75977 11.6935 5.52281 11.5929 5.27784 11.5929C4.6538 11.5929 4.07081 11.6986 3.54473 11.907C3.01702 12.1159 2.56017 12.4028 2.18681 12.7601C1.83014 13.1014 1.51228 13.5157 1.242 13.9916C0.981469 14.4503 0.770531 14.9288 0.615234 15.4138C0.465234 15.8828 0.339844 16.3956 0.242437 16.9384C0.145734 17.4763 0.0803906 17.9866 0.0479531 18.4554C0.0160781 18.9137 0 19.3907 0 19.8726C0 21.1254 0.39825 22.1396 1.18359 22.8876C1.95923 23.6258 2.98537 24 4.23356 24H15.7897C17.0376 24 18.0637 23.6257 18.8395 22.8877C19.6251 22.1402 20.0233 21.1256 20.0233 19.8724C20.0231 19.3889 20.0069 18.9119 19.9748 18.4548ZM17.8698 21.8686C17.3573 22.3564 16.6769 22.5936 15.7895 22.5936H4.23361C3.34612 22.5936 2.66569 22.3564 2.15334 21.8689C1.65075 21.3904 1.40648 20.7373 1.40648 19.8726C1.40648 19.4229 1.4213 18.9789 1.45102 18.5526C1.47989 18.1344 1.53905 17.675 1.6268 17.1868C1.71337 16.7047 1.82358 16.2523 1.95469 15.8427C2.0805 15.4499 2.25206 15.061 2.46483 14.6864C2.66789 14.3293 2.90152 14.0229 3.15933 13.7761C3.4005 13.5452 3.70448 13.3563 4.06261 13.2146C4.39383 13.0834 4.76611 13.0117 5.17022 13.0008C5.21944 13.0271 5.30719 13.077 5.44927 13.1697C5.73839 13.3581 6.07162 13.5731 6.44006 13.8083C6.85537 14.0731 7.39036 14.3123 8.02959 14.5186C8.68308 14.7299 9.34959 14.8372 10.0111 14.8372C10.6727 14.8372 11.3394 14.7299 11.9925 14.5188C12.6323 14.3121 13.1671 14.0731 13.583 13.808C13.96 13.567 14.2839 13.3583 14.573 13.1697C14.7151 13.0772 14.8028 13.027 14.8521 13.0009C15.2564 13.0117 15.6286 13.0834 15.96 13.2145C16.318 13.3563 16.622 13.5454 16.8631 13.7761C17.121 14.0228 17.3546 14.3291 17.5576 14.6865C17.7706 15.061 17.9424 15.4501 18.068 15.8425C18.1993 16.2526 18.3097 16.7049 18.3961 17.1866C18.4836 17.6757 18.543 18.1353 18.5719 18.5528V18.5532C18.6017 18.9778 18.6167 19.4216 18.6169 19.8726C18.6167 20.7375 18.3725 21.3904 17.8699 21.8686H17.8698Z" fill="#030712"/>
</svg>
