<svg width="22" height="22" viewBox="0 0 22 22" fill="none" xmlns="http://www.w3.org/2000/svg">
<path d="M5.67125 5H7.73375V3.5H5.67125V5ZM8.4305 5.47175L9.22175 7.448L10.6145 6.89075L9.82325 4.9145L8.4305 5.47175ZM9.101 8.207L8.67575 8.717L9.8285 9.67775L10.2537 9.16775L9.101 8.207ZM8.813 11.7492L10.2508 13.187L11.312 12.1258L9.87425 10.688L8.813 11.7492ZM13.283 13.3243L13.793 12.899L12.833 11.7463L12.3222 12.1715L13.283 13.3243ZM14.552 12.7782L16.5282 13.5695L17.0855 12.1768L15.1085 11.3855L14.552 12.7782ZM17 14.2655V16.3287H18.5V14.2662L17 14.2655ZM16.3287 17C10.0722 17 5 11.9277 5 5.67125H3.5C3.5 12.7565 9.2435 18.5 16.3287 18.5V17ZM17 16.3287C17 16.6992 16.7 17 16.3287 17V18.5C16.9046 18.5 17.4569 18.2712 17.8641 17.8641C18.2712 17.4569 18.5 16.9046 18.5 16.3287H17ZM16.5282 13.5695C16.6677 13.6252 16.7871 13.7207 16.8713 13.845C16.9554 13.9694 17.0002 14.1154 17 14.2655L18.5 14.2662C18.5001 13.8165 18.3654 13.377 18.1132 13.0046C17.8611 12.6321 17.5031 12.3438 17.0855 12.1768L16.5282 13.5695ZM13.793 12.899C13.8969 12.8124 14.0223 12.7555 14.156 12.7344C14.2896 12.7133 14.4264 12.7279 14.552 12.7782L15.1085 11.3855C14.7319 11.235 14.3216 11.189 13.9211 11.2525C13.5205 11.316 13.1446 11.4866 12.833 11.7463L13.793 12.899ZM10.2508 13.187C10.6478 13.584 11.179 13.8182 11.7399 13.8436C12.3008 13.869 12.8517 13.6838 13.283 13.3243L12.3222 12.1715C12.1784 12.2912 11.995 12.3535 11.8081 12.3449C11.6212 12.3363 11.4442 12.2581 11.312 12.1258L10.2508 13.187ZM8.67575 8.717C8.31582 9.14841 8.13031 9.69887 8.15571 10.2601C8.1811 10.8214 8.41557 11.3529 8.813 11.75L9.87425 10.6888C9.74187 10.5565 9.66371 10.3796 9.65511 10.1926C9.64651 10.0057 9.70808 9.82234 9.82775 9.6785L8.67575 8.717ZM9.22175 7.448C9.27206 7.57358 9.28746 7.71042 9.26634 7.84404C9.24521 7.97765 9.18759 8.10307 9.101 8.207L10.2537 9.167C10.5134 8.85528 10.6839 8.47917 10.7473 8.07846C10.8107 7.67776 10.7645 7.26738 10.6137 6.89075L9.22175 7.448ZM7.73375 5C7.88362 5.00009 8.03077 5.04509 8.15482 5.12917C8.27888 5.21326 8.3749 5.33258 8.4305 5.47175L9.82325 4.9145C9.65628 4.49701 9.36806 4.13912 8.99575 3.88699C8.62345 3.63487 8.18339 3.50007 7.73375 3.5V5ZM5.67125 3.5C5.0954 3.5 4.54313 3.72876 4.13594 4.13594C3.72876 4.54313 3.5 5.0954 3.5 5.67125H5C5 5.3 5.3 5 5.67125 5V3.5Z" fill="#4B5563"/>
</svg>
