<svg width="24" height="25" viewBox="0 0 24 25" fill="none" xmlns="http://www.w3.org/2000/svg">
<g id="Frame">
<g id="Group">
<path id="Vector" d="M15.0226 10.6945C15.0226 10.5155 14.9515 10.3438 14.8249 10.2172C14.6983 10.0906 14.5266 10.0195 14.3476 10.0195H6.92259C6.74357 10.0195 6.57188 10.0906 6.4453 10.2172C6.31871 10.3438 6.24759 10.5155 6.24759 10.6945C6.24759 10.8736 6.31871 11.0452 6.4453 11.1718C6.57188 11.2984 6.74357 11.3695 6.92259 11.3695H14.3476C14.4362 11.3695 14.524 11.3521 14.6059 11.3181C14.6878 11.2842 14.7622 11.2345 14.8249 11.1718C14.8876 11.1091 14.9373 11.0347 14.9712 10.9528C15.0051 10.8709 15.0226 10.7832 15.0226 10.6945ZM6.92109 13.4283C6.74207 13.4283 6.57038 13.4994 6.4438 13.626C6.31721 13.7526 6.24609 13.9243 6.24609 14.1033C6.24609 14.2823 6.31721 14.454 6.4438 14.5806C6.57038 14.7072 6.74207 14.7783 6.92109 14.7783H10.8578C11.0369 14.7783 11.2086 14.7072 11.3351 14.5806C11.4617 14.454 11.5328 14.2823 11.5328 14.1033C11.5328 13.9243 11.4617 13.7526 11.3351 13.626C11.2086 13.4994 11.0369 13.4283 10.8578 13.4283H6.92109Z" fill="#030712"/>
<path id="Vector_2" d="M19.4702 10.7336C19.2912 10.7336 19.1195 10.8047 18.9929 10.9313C18.8663 11.0579 18.7952 11.2296 18.7952 11.4086V16.8679C18.7946 17.359 18.5992 17.8299 18.252 18.1771C17.9047 18.5244 17.4338 18.7198 16.9427 18.7204H12.4277C12.2813 18.7202 12.1388 18.7679 12.0219 18.8561L8.12345 21.7879C8.09015 21.8146 8.04955 21.8306 8.00698 21.8338C7.96442 21.837 7.92187 21.8273 7.88494 21.8059C7.84678 21.7876 7.81483 21.7586 7.79309 21.7223C7.77135 21.686 7.76078 21.6441 7.7627 21.6019L7.8377 19.4194C7.84061 19.3289 7.82533 19.2388 7.79278 19.1543C7.76023 19.0699 7.71106 18.9928 7.64819 18.9277C7.58532 18.8626 7.51002 18.8108 7.42676 18.7753C7.34349 18.7398 7.25395 18.7214 7.16344 18.7211H4.0277C3.5365 18.7207 3.06554 18.5254 2.71822 18.1781C2.37089 17.8308 2.17559 17.3598 2.1752 16.8686V7.94362C2.1748 7.45157 2.36963 6.97945 2.71693 6.63088C3.06423 6.28231 3.53564 6.08577 4.0277 6.08437H12.3452C12.5242 6.08437 12.6959 6.01326 12.8225 5.88667C12.9491 5.76008 13.0202 5.5884 13.0202 5.40937C13.0202 5.23035 12.9491 5.05866 12.8225 4.93208C12.6959 4.80549 12.5242 4.73438 12.3452 4.73438H4.0277C3.17765 4.73636 2.3631 5.07543 1.76273 5.67721C1.16236 6.27899 0.825193 7.09433 0.825195 7.94437V16.8686C0.826187 17.7177 1.16389 18.5318 1.76424 19.1323C2.36459 19.7328 3.17858 20.0707 4.0277 20.0719H6.46445L6.41344 21.5584C6.4031 21.8552 6.47744 22.1489 6.62778 22.4051C6.77811 22.6613 6.99824 22.8694 7.26244 23.0051C7.48738 23.123 7.73749 23.1848 7.99144 23.1851C8.32369 23.1851 8.65295 23.0779 8.93344 22.8686L12.6527 20.0719H16.9419C17.7911 20.0707 18.6051 19.7328 19.2054 19.1323C19.8058 18.5318 20.1435 17.7177 20.1444 16.8686V11.4094C20.1446 11.3207 20.1273 11.2329 20.0936 11.1509C20.0598 11.0689 20.0101 10.9944 19.9475 10.9316C19.8849 10.8689 19.8105 10.8191 19.7286 10.7851C19.6467 10.7511 19.5589 10.7336 19.4702 10.7336Z" fill="#030712"/>
<path id="Vector_3" d="M23.1193 4.30284C23.0604 4.1195 22.9555 3.95431 22.8146 3.82301C22.6737 3.69172 22.5016 3.59871 22.3145 3.55284L20.5895 3.12309L19.6475 1.61559C19.2298 0.945094 18.1393 0.946594 17.7223 1.61559L16.7803 3.12309L15.0553 3.55284C14.6735 3.64734 14.372 3.92784 14.2505 4.30284C14.129 4.67784 14.207 5.08209 14.4605 5.38434L15.6035 6.74484L15.479 8.51784C15.4649 8.70998 15.5002 8.90254 15.5816 9.07715C15.663 9.25177 15.7878 9.40263 15.944 9.51534C16.0996 9.62901 16.2817 9.70102 16.473 9.72452C16.6642 9.74801 16.8583 9.72222 17.0368 9.64959L18.6853 8.98359L20.333 9.64959C20.6983 9.79809 21.1063 9.74709 21.4258 9.51609C21.7445 9.28434 21.9185 8.91159 21.8915 8.51784L21.767 6.74484L22.91 5.38359C23.1628 5.08209 23.2415 4.67784 23.1193 4.30284ZM20.5573 6.08559C20.4445 6.21994 20.3886 6.39292 20.4013 6.56784L20.5213 8.27034L18.9388 7.63059C18.7767 7.56472 18.5953 7.56472 18.4333 7.63059L16.8515 8.27034L16.9708 6.56784C16.9826 6.39303 16.9268 6.22036 16.8148 6.08559L15.7175 4.77909L17.3735 4.36584C17.5431 4.32349 17.6896 4.21703 17.7823 4.06884L18.6868 2.62209L19.5913 4.06884C19.6843 4.21734 19.8305 4.32384 20 4.36584L21.656 4.77909L20.5573 6.08559Z" fill="#030712"/>
</g>
</g>
</svg>
