<svg width="24" height="25" viewBox="0 0 24 25" fill="none" xmlns="http://www.w3.org/2000/svg">
<g clip-path="url(#clip0_575_11590)">
<path d="M22.0577 6.26942C22.0453 5.62145 22.0336 5.00933 22.0336 4.41714C22.0336 4.19434 21.9451 3.98067 21.7875 3.82313C21.63 3.66558 21.4163 3.57708 21.1935 3.57708C17.6008 3.57708 14.8655 2.54459 12.5855 0.327719C12.4287 0.175187 12.2186 0.0898438 11.9998 0.0898438C11.7811 0.0898437 11.571 0.175187 11.4142 0.327719C9.13437 2.54459 6.39947 3.57708 2.80703 3.57708C2.58423 3.57708 2.37056 3.66558 2.21302 3.82313C2.05547 3.98067 1.96697 4.19434 1.96697 4.41714C1.96697 5.00944 1.95532 5.62179 1.94289 6.26987C1.82774 12.2999 1.67003 20.5584 11.7247 24.0436C11.9029 24.1054 12.0967 24.1054 12.2749 24.0436C22.3303 20.5583 22.1728 12.2996 22.0577 6.26942ZM11.9999 22.3584C3.3767 19.2259 3.50708 12.3637 3.62278 6.3019C3.62973 5.9381 3.63645 5.5855 3.64115 5.23984C7.00588 5.09781 9.69654 4.0782 11.9999 2.07169C14.3034 4.0782 16.9945 5.09792 20.3595 5.23984C20.3642 5.58538 20.3709 5.93776 20.3779 6.30134C20.4935 12.3633 20.6237 19.2257 11.9999 22.3584Z" fill="#030712"/>
<path d="M14.8925 9.17174L10.8379 13.2261L9.1077 11.4959C8.94926 11.3428 8.73699 11.258 8.51663 11.2598C8.29627 11.2617 8.08546 11.3501 7.92965 11.5059C7.77383 11.6618 7.68548 11.8726 7.68362 12.0929C7.68177 12.3133 7.76657 12.5256 7.91974 12.684L10.2439 15.0082C10.3218 15.0863 10.4144 15.1482 10.5164 15.1904C10.6183 15.2326 10.7276 15.2543 10.8379 15.2541C10.9482 15.2543 11.0575 15.2326 11.1594 15.1904C11.2614 15.1482 11.3539 15.0863 11.4319 15.0082L16.0803 10.3598C16.1584 10.2818 16.2203 10.1892 16.2625 10.0873C16.3047 9.98541 16.3265 9.87617 16.3265 9.76585C16.3265 9.65554 16.3048 9.5463 16.2626 9.44438C16.2203 9.34245 16.1585 9.24985 16.0804 9.17185C15.9229 9.01432 15.7093 8.9258 15.4865 8.92578C15.2637 8.92576 15.05 9.01423 14.8925 9.17174Z" fill="#030712"/>
</g>
<defs>
<clipPath id="clip0_575_11590">
<rect width="24" height="24" fill="white" transform="translate(0 0.0898438)"/>
</clipPath>
</defs>
</svg>
