<svg width="33" height="32" viewBox="0 0 33 32" fill="none" xmlns="http://www.w3.org/2000/svg">
<path d="M26.9068 14.5728L26.9053 14.5713L17.9311 5.59743C17.5485 5.21467 17.04 5.00391 16.499 5.00391C15.958 5.00391 15.4495 5.21454 15.0668 5.59726L6.09719 14.5666C6.09418 14.5696 6.09118 14.5728 6.08817 14.5758C5.30261 15.3659 5.30399 16.6477 6.09204 17.4358C6.45203 17.796 6.92756 18.0046 7.43597 18.0264C7.45659 18.0284 7.47743 18.0294 7.4984 18.0294H7.85608V24.6337C7.85608 25.9406 8.91938 27.0039 10.2266 27.0039H13.7376C14.0934 27.0039 14.3821 26.7154 14.3821 26.3594V21.1816C14.3821 20.5853 14.8672 20.1002 15.4636 20.1002H17.5344C18.1308 20.1002 18.6159 20.5853 18.6159 21.1816V26.3594C18.6159 26.7154 18.9044 27.0039 19.2604 27.0039H22.7714C24.0786 27.0039 25.1419 25.9406 25.1419 24.6337V18.0295H25.4736C26.0144 18.0295 26.523 17.8188 26.9058 17.4361C27.6947 16.6468 27.695 15.3627 26.9068 14.5728Z" fill="#030712"/>
</svg>
