<svg width="34" height="33" viewBox="0 0 34 33" fill="none" xmlns="http://www.w3.org/2000/svg">
<g clip-path="url(#clip0_575_11405)">
<path d="M16.9795 5.14453C13.7809 5.14453 11.1787 7.74676 11.1787 10.9453C11.1787 14.1439 13.7809 16.7461 16.9795 16.7461C20.178 16.7461 22.7803 14.1439 22.7803 10.9453C22.7803 7.74676 20.178 5.14453 16.9795 5.14453ZM24.1968 20.5357C22.6087 18.9232 20.5033 18.0352 18.2686 18.0352H15.6904C13.4557 18.0352 11.3503 18.9232 9.7622 20.5357C8.18186 22.1403 7.31152 24.2584 7.31152 26.5C7.31152 26.856 7.6001 27.1445 7.95605 27.1445H26.0029C26.3589 27.1445 26.6475 26.856 26.6475 26.5C26.6475 24.2584 25.7771 22.1403 24.1968 20.5357Z" fill="#030712"/>
</g>
<defs>
<clipPath id="clip0_575_11405">
<rect width="22" height="22" fill="white" transform="translate(5.97949 5.14453)"/>
</clipPath>
</defs>
</svg>
