<svg width="32" height="33" viewBox="0 0 32 33" fill="none" xmlns="http://www.w3.org/2000/svg">
<path d="M20.9499 9.48511H20.4V8.28365C21.1576 8.01599 21.6121 7.24111 21.4762 6.44917C21.3402 5.65702 20.6536 5.07812 19.8499 5.07812C19.0463 5.07812 18.3596 5.65702 18.2237 6.44917C18.0878 7.24116 18.5423 8.01599 19.2998 8.28365V9.48505H12.6999V8.28365C13.4576 8.01599 13.912 7.24111 13.7762 6.44917C13.6404 5.65702 12.9537 5.07812 12.15 5.07812C11.3464 5.07812 10.6596 5.65702 10.5238 6.44917C10.3879 7.24116 10.8423 8.01599 11.6 8.28365V9.48505H11.0499C9.53192 9.4867 8.30164 10.7169 8.29999 12.235V21.5849C8.30164 23.1032 9.53187 24.3335 11.0499 24.3351H12.6999V26.5349C12.7 26.6331 12.7263 26.7295 12.7762 26.814C12.8261 26.8986 12.8976 26.9683 12.9835 27.0159C13.0693 27.0635 13.1663 27.0872 13.2645 27.0846C13.3626 27.082 13.4582 27.0532 13.5414 27.0012L17.8078 24.3351H20.9499C22.4682 24.3336 23.6987 23.1032 23.7 21.5849V12.235C23.6986 10.7169 22.4682 9.4865 20.9499 9.48511ZM13.25 12.7851C14.1608 12.7861 14.8989 13.5243 14.9 14.4351C14.9 14.7388 14.6539 14.985 14.3499 14.985C14.0462 14.985 13.8 14.7388 13.8 14.4351C13.8 14.1314 13.5538 13.885 13.25 13.885C12.9463 13.885 12.6999 14.1313 12.6999 14.435C12.6999 14.7388 12.4538 14.9849 12.15 14.9849C11.8463 14.9849 11.6 14.7387 11.6 14.435C11.601 13.5242 12.3392 12.7861 13.25 12.7851ZM20.0959 19.602C18.8158 20.2057 17.4151 20.5099 15.9999 20.4914C14.5848 20.51 13.1841 20.2058 11.9039 19.602C11.6322 19.4662 11.5223 19.1357 11.658 18.864C11.794 18.5923 12.1243 18.4821 12.396 18.618C14.4504 19.6449 17.55 19.6449 19.6041 18.618C19.8758 18.4821 20.2061 18.5923 20.342 18.864C20.4778 19.1357 20.3676 19.4662 20.0959 19.602ZM19.85 14.985C19.7041 14.9852 19.5641 14.9271 19.461 14.824C19.3579 14.7209 19.2999 14.5809 19.2999 14.4351C19.2999 14.1314 19.0538 13.885 18.75 13.885C18.4463 13.885 18.2 14.1313 18.2 14.4351C18.2 14.7388 17.9539 14.985 17.6499 14.985C17.3462 14.985 17.1 14.7388 17.1 14.4351C17.1 13.5237 17.8387 12.7851 18.75 12.7851C19.6612 12.7851 20.4 13.5237 20.4 14.4351C20.4 14.5809 20.3423 14.7209 20.2389 14.824C20.1358 14.9271 19.9958 14.9852 19.85 14.985ZM25.35 13.885H24.7999V19.3851H25.35C26.2608 19.3841 26.999 18.6459 27 17.7351V15.535C26.999 14.6242 26.2608 13.886 25.35 13.885ZM5 15.535V17.7351C5.00103 18.6459 5.7392 19.384 6.64999 19.3851H7.20006V13.885H6.64999C5.7392 13.886 5.00103 14.6242 5 15.535Z" fill="#030712"/>
</svg>
