<svg width="19" height="18" viewBox="0 0 19 18" fill="none" xmlns="http://www.w3.org/2000/svg">
<g id="Frame">
<g id="Group">
<path id="Vector" d="M13.727 5.94179H12.1917C12.0426 5.94179 11.8995 6.00105 11.794 6.10654C11.6885 6.21203 11.6292 6.3551 11.6292 6.50429C11.6292 6.65347 11.6885 6.79654 11.794 6.90203C11.8995 7.00752 12.0426 7.06679 12.1917 7.06679H13.7274C14.0375 7.06679 14.2899 7.31916 14.2899 7.62929V14.9853C14.2899 15.2954 14.0375 15.5478 13.7274 15.5478H5.27148C4.96136 15.5478 4.70898 15.2954 4.70898 14.9853V7.62929C4.70898 7.31916 4.96136 7.06679 5.27148 7.06679H6.80711C6.95629 7.06679 7.09937 7.00752 7.20486 6.90203C7.31035 6.79654 7.36961 6.65347 7.36961 6.50429C7.36961 6.3551 7.31035 6.21203 7.20486 6.10654C7.09937 6.00105 6.95629 5.94179 6.80711 5.94179H5.27148C4.82408 5.94228 4.39515 6.12023 4.07879 6.43659C3.76243 6.75295 3.58448 7.18189 3.58398 7.62929V14.9853C3.58398 15.9157 4.34111 16.6728 5.27148 16.6728H13.7274C14.6577 16.6728 15.4149 15.9157 15.4149 14.9853V7.62929C15.4143 7.18185 15.2362 6.75292 14.9198 6.43657C14.6034 6.12022 14.1744 5.94228 13.727 5.94179ZM7.40186 4.80629L8.95548 3.25266V10.6582C8.95548 10.732 8.97003 10.8052 8.9983 10.8734C9.02657 10.9417 9.068 11.0037 9.12024 11.0559C9.17247 11.1081 9.23448 11.1496 9.30272 11.1778C9.37097 11.2061 9.44412 11.2207 9.51798 11.2207C9.59185 11.2207 9.665 11.2061 9.73324 11.1778C9.80149 11.1496 9.8635 11.1081 9.91573 11.0559C9.96797 11.0037 10.0094 10.9417 10.0377 10.8734C10.0659 10.8052 10.0805 10.732 10.0805 10.6582V3.25266L11.6341 4.80629C11.744 4.91616 11.888 4.97091 12.032 4.97091C12.176 4.97091 12.32 4.91616 12.4299 4.80629C12.5353 4.7008 12.5946 4.55775 12.5946 4.4086C12.5946 4.25944 12.5353 4.1164 12.4299 4.01091L9.91623 1.49691C9.864 1.44464 9.80197 1.40317 9.7337 1.37488C9.66543 1.34659 9.59226 1.33203 9.51836 1.33203C9.44446 1.33203 9.37129 1.34659 9.30302 1.37488C9.23475 1.40317 9.17272 1.44464 9.12048 1.49691L6.60648 4.01091C6.55276 4.0628 6.50991 4.12487 6.48043 4.1935C6.45095 4.26212 6.43543 4.33593 6.43478 4.41062C6.43413 4.48531 6.44836 4.55938 6.47665 4.62851C6.50493 4.69764 6.5467 4.76044 6.59951 4.81326C6.65233 4.86607 6.71513 4.90784 6.78426 4.93612C6.85339 4.96441 6.92746 4.97864 7.00215 4.97799C7.07684 4.97734 7.15065 4.96182 7.21927 4.93234C7.2879 4.90286 7.34997 4.86001 7.40186 4.80629Z" fill="#F9FAFB"/>
</g>
</g>
</svg>
