<svg width="32" height="32" viewBox="0 0 32 32" fill="none" xmlns="http://www.w3.org/2000/svg">
<path d="M12.1498 14.9069C12.2957 14.9071 12.4356 14.8491 12.5387 14.746C12.6419 14.6428 12.6999 14.5028 12.6997 14.357C12.6997 14.0533 12.946 13.807 13.2497 13.807C13.5535 13.807 13.7998 14.0533 13.7998 14.357C13.7998 14.6608 14.046 14.9069 14.3497 14.9069C14.6536 14.9069 14.8997 14.6607 14.8997 14.357C14.8997 13.4456 14.1609 12.707 13.2497 12.707C12.3386 12.707 11.5997 13.4456 11.5997 14.357C11.5997 14.4293 11.6139 14.5008 11.6416 14.5675C11.6692 14.6343 11.7097 14.6949 11.7608 14.746C11.8119 14.797 11.8725 14.8375 11.9393 14.8651C12.006 14.8928 12.0776 14.9069 12.1498 14.9069ZM19.6038 18.54C17.5498 19.5668 14.4502 19.5668 12.3958 18.54C12.124 18.4041 11.7937 18.5142 11.6577 18.786C11.522 19.0577 11.632 19.3882 11.9037 19.5239C13.1837 20.1277 14.5845 20.4319 15.9997 20.4134C17.4148 20.4318 18.8156 20.1277 20.0957 19.5239C20.3674 19.3882 20.4775 19.0577 20.3418 18.7859C20.2059 18.5142 19.8755 18.4041 19.6038 18.54V18.54Z" fill="#6B7280"/>
<path d="M25.35 13.8068H24.7999V12.1569C24.7985 10.6389 23.5681 9.40837 22.05 9.40698H20.4V8.20553C21.1576 7.93787 21.6121 7.16299 21.4762 6.37104C21.3402 5.57889 20.6536 5 19.8499 5C19.0463 5 18.3596 5.57889 18.2237 6.37104C18.0878 7.16304 18.5423 7.93787 19.2998 8.20553V9.40693H12.6999V8.20553C13.4576 7.93787 13.912 7.16299 13.7762 6.37104C13.6404 5.57889 12.9537 5 12.15 5C11.3464 5 10.6596 5.57889 10.5238 6.37104C10.3879 7.16304 10.8423 7.93787 11.6 8.20553V9.40693H9.94998C8.43194 9.40858 7.20171 10.6388 7.20006 12.1569V13.8069H6.64999C5.7392 13.8079 5.00103 14.5461 5 15.4569V17.657C5.00103 18.5678 5.7392 19.3059 6.64999 19.307H7.20006V21.5068C7.20171 23.0251 8.43194 24.2553 9.94998 24.2569H12.6999V26.4568C12.7 26.555 12.7263 26.6513 12.7762 26.7359C12.8261 26.8205 12.8976 26.8902 12.9835 26.9378C13.0693 26.9853 13.1663 27.0091 13.2645 27.0065C13.3626 27.0039 13.4582 26.9751 13.5414 26.9231L17.8078 24.2569H22.05C23.5681 24.2555 24.7985 23.0251 24.7999 21.5068V19.307H25.35C26.2608 19.3059 26.999 18.5678 27 17.657V15.4568C26.999 14.546 26.2608 13.8079 25.35 13.8068ZM19.85 6.10704C20.1537 6.10704 20.4 6.35315 20.4 6.6569C20.4 6.96081 20.1537 7.20697 19.85 7.20697C19.5463 7.20697 19.2999 6.96081 19.2999 6.6569C19.3005 6.35356 19.5465 6.10761 19.85 6.10704ZM12.15 6.10704C12.4538 6.10704 12.6999 6.35315 12.6999 6.6569C12.6999 6.96081 12.4538 7.20697 12.15 7.20697C11.8463 7.20697 11.6 6.96081 11.6 6.6569C11.6004 6.35336 11.8463 6.10746 12.15 6.10704ZM6.64999 18.2068C6.3465 18.2066 6.10034 17.9605 6.09993 17.657V15.4568C6.10034 15.1533 6.3465 14.9072 6.64999 14.9068H7.20006V18.2068L6.64999 18.2068ZM23.7 21.5068C23.699 22.4178 22.9608 23.156 22.05 23.1568H17.6499C17.547 23.1568 17.4461 23.1858 17.3589 23.2406L13.8 25.4642V23.7068C13.8 23.5609 13.742 23.4211 13.6389 23.3179C13.5357 23.2148 13.3958 23.1568 13.25 23.1567H9.94998C9.03919 23.1559 8.30102 22.4178 8.29999 21.5068V12.1569C8.30102 11.2461 9.03919 10.5079 9.94998 10.5069H22.05C22.9608 10.5079 23.699 11.2461 23.7 12.1569V21.5068ZM25.8999 17.657C25.8995 17.9605 25.6536 18.2064 25.35 18.2068H24.7999V14.9068H25.35C25.6536 14.9074 25.8995 15.1533 25.8999 15.4569V17.657Z" fill="#6B7280"/>
<path d="M18.7496 12.707C17.8388 12.7081 17.1006 13.4462 17.0996 14.357C17.0996 14.6607 17.3458 14.9069 17.6495 14.9069C17.9534 14.9069 18.1995 14.6607 18.1995 14.357C18.1995 14.0533 18.4459 13.807 18.7496 13.807C19.0533 13.807 19.2995 14.0533 19.2995 14.357C19.2995 14.6608 19.5458 14.9069 19.8495 14.9069C20.1533 14.9069 20.3996 14.6607 20.3996 14.357C20.3986 13.4462 19.6604 12.7081 18.7496 12.707Z" fill="#6B7280"/>
</svg>
