<svg width="33" height="33" viewBox="0 0 33 33" fill="none" xmlns="http://www.w3.org/2000/svg">
<g clip-path="url(#clip0_575_11396)">
<path d="M26.9704 14.6462C26.9697 14.6458 26.9692 14.6451 26.9687 14.6446L17.9769 5.65315C17.5936 5.26964 17.084 5.05859 16.542 5.05859C16 5.05859 15.4904 5.26964 15.107 5.65311L6.11985 14.64C6.11683 14.643 6.11365 14.6462 6.1108 14.6493C5.32371 15.4408 5.32509 16.7252 6.11468 17.5148C6.47538 17.8757 6.95163 18.0846 7.46107 18.1066C7.48191 18.1086 7.50279 18.1096 7.5238 18.1096H7.882V24.7266C7.882 26.0362 8.94756 27.1016 10.2571 27.1016H13.775C14.1317 27.1016 14.4208 26.8123 14.4208 26.4558V21.268C14.4208 20.6705 14.907 20.1844 15.5045 20.1844H17.5795C18.1771 20.1844 18.663 20.6705 18.663 21.268V26.4559C18.663 26.8124 18.9521 27.1016 19.3088 27.1016H22.8267C24.1365 27.1016 25.2019 26.0363 25.2019 24.7267V18.1096H25.5342C26.076 18.1096 26.5856 17.8985 26.9692 17.5149C27.7597 16.7242 27.76 15.4375 26.9704 14.6462L26.9704 14.6462ZM26.0558 16.6018C25.9875 16.6705 25.9062 16.7251 25.8167 16.7622C25.7271 16.7993 25.6311 16.8183 25.5342 16.8181H24.556C24.1993 16.8181 23.9102 17.1071 23.9102 17.4639V24.7267C23.9102 25.324 23.4242 25.8101 22.8267 25.8101H19.9546V21.268C19.9546 19.9584 18.8892 18.8928 17.5794 18.8928H15.5046C14.1948 18.8928 13.1293 19.9584 13.1293 21.268V25.8101H10.2572C9.65982 25.8101 9.17363 25.324 9.17363 24.7267V17.4638C9.17363 17.1071 8.88453 16.818 8.52783 16.818H7.56651C7.55643 16.8173 7.54634 16.8169 7.53624 16.8167C7.34384 16.8133 7.1634 16.737 7.02822 16.6016C6.74062 16.314 6.74062 15.846 7.02822 15.5582C7.02835 15.5582 7.02835 15.5581 7.02852 15.5579L7.02903 15.5574L16.0205 6.5663C16.0888 6.49755 16.1701 6.44304 16.2596 6.40594C16.3491 6.36884 16.4451 6.34989 16.542 6.35018C16.739 6.35018 16.9241 6.42686 17.0635 6.5663L26.053 15.5556L26.0572 15.5596C26.3433 15.8477 26.3428 16.3148 26.0558 16.6018Z" fill="#6B7280"/>
</g>
<defs>
<clipPath id="clip0_575_11396">
<rect width="22" height="22.043" fill="white" transform="translate(5.5 5.05859)"/>
</clipPath>
</defs>
</svg>
