<svg width="22" height="22" viewBox="0 0 22 22" fill="none" xmlns="http://www.w3.org/2000/svg">
<path d="M10.2252 13.2312C10.3234 13.2314 10.4206 13.2104 10.51 13.1697C10.5995 13.129 10.6791 13.0695 10.7436 12.9953L16.6609 6.21385C16.7243 6.14656 16.7735 6.06717 16.8056 5.98043C16.8376 5.89368 16.8518 5.80136 16.8474 5.70899C16.8429 5.61662 16.8198 5.5261 16.7796 5.44284C16.7393 5.35959 16.6827 5.28532 16.613 5.22447C16.5434 5.16362 16.4622 5.11745 16.3743 5.08872C16.2864 5.05998 16.1936 5.04928 16.1015 5.05724C16.0093 5.06521 15.9197 5.09168 15.8381 5.13507C15.7564 5.17847 15.6843 5.23789 15.6262 5.30979L9.70886 12.0913C9.62198 12.1907 9.56557 12.3131 9.54637 12.4437C9.52717 12.5743 9.546 12.7077 9.6006 12.828C9.6552 12.9482 9.74326 13.0501 9.85426 13.1216C9.96527 13.1931 10.0945 13.2312 10.2266 13.2312H10.2252Z" fill="#9CA3AF"/>
<path d="M21.1666 4.64606C21.0986 4.5867 21.0195 4.54132 20.934 4.51251C20.8484 4.48369 20.758 4.47202 20.6679 4.47815C20.5778 4.48428 20.4898 4.50809 20.409 4.54822C20.3281 4.58836 20.2559 4.64403 20.1965 4.71206L10.522 15.7994L5.84567 10.6088C5.78585 10.5396 5.71284 10.4831 5.63091 10.4425C5.54898 10.4019 5.45978 10.3781 5.36853 10.3724C5.27728 10.3667 5.18581 10.3793 5.09948 10.4094C5.01315 10.4395 4.93369 10.4865 4.86575 10.5477C4.7978 10.6089 4.74274 10.683 4.70379 10.7657C4.66484 10.8484 4.64278 10.9381 4.63889 11.0294C4.63501 11.1207 4.64938 11.2119 4.68118 11.2977C4.71297 11.3834 4.76154 11.4619 4.82404 11.5286L7.55273 14.5578L6.47129 15.7987L1.79629 10.6088C1.7358 10.5417 1.66269 10.4872 1.58114 10.4483C1.49958 10.4095 1.41118 10.3871 1.32097 10.3825C1.23076 10.3778 1.14052 10.391 1.0554 10.4212C0.970277 10.4514 0.891938 10.4981 0.824857 10.5586C0.757777 10.6191 0.703267 10.6922 0.664441 10.7737C0.625615 10.8553 0.603233 10.9437 0.598572 11.0339C0.593912 11.1241 0.607065 11.2143 0.63728 11.2995C0.667495 11.3846 0.71418 11.4629 0.77467 11.53L5.96942 17.2954C6.10004 17.4398 6.28567 17.5223 6.48023 17.5223H6.48573C6.58299 17.5216 6.67899 17.5003 6.7674 17.4597C6.85581 17.4192 6.93461 17.3604 6.99861 17.2871L8.47948 15.5869L10.0195 17.2961C10.1501 17.4404 10.3357 17.5229 10.5303 17.5229H10.5351C10.6324 17.5223 10.7284 17.5009 10.8168 17.4604C10.9052 17.4199 10.984 17.3611 11.048 17.2878L21.2326 5.61681C21.292 5.54879 21.3374 5.46973 21.3662 5.38416C21.395 5.2986 21.4067 5.20819 21.4005 5.11811C21.3944 5.02803 21.3706 4.94004 21.3304 4.85917C21.2903 4.77829 21.2346 4.70542 21.1666 4.64606Z" fill="#9CA3AF"/>
</svg>
