<svg width="34" height="32" viewBox="0 0 34 32" fill="none" xmlns="http://www.w3.org/2000/svg">
<g clip-path="url(#clip0_575_11372)">
<path d="M16.9795 5.00391C13.7809 5.00391 11.1787 7.60614 11.1787 10.8047C11.1787 14.0032 13.7809 16.6055 16.9795 16.6055C20.178 16.6055 22.7803 14.0032 22.7803 10.8047C22.7803 7.60614 20.178 5.00391 16.9795 5.00391ZM16.9795 15.3164C14.4917 15.3164 12.4678 13.2924 12.4678 10.8047C12.4678 8.31693 14.4917 6.29297 16.9795 6.29297C19.4673 6.29297 21.4912 8.31693 21.4912 10.8047C21.4912 13.2924 19.4673 15.3164 16.9795 15.3164ZM24.1968 20.3951C22.6087 18.7826 20.5033 17.8945 18.2686 17.8945H15.6904C13.4557 17.8945 11.3503 18.7826 9.7622 20.3951C8.18186 21.9997 7.31152 24.1178 7.31152 26.3594C7.31152 26.7153 7.6001 27.0039 7.95605 27.0039H26.0029C26.3589 27.0039 26.6475 26.7153 26.6475 26.3594C26.6475 24.1178 25.7771 21.9997 24.1968 20.3951ZM8.62895 25.7148C8.95186 22.0588 11.9956 19.1836 15.6904 19.1836H18.2686C21.9634 19.1836 25.0071 22.0588 25.33 25.7148H8.62895Z" fill="#6B7280"/>
</g>
<defs>
<clipPath id="clip0_575_11372">
<rect width="22" height="22" fill="white" transform="translate(5.97949 5.00391)"/>
</clipPath>
</defs>
</svg>
